<svg version="1.1" id="Layer_1" xmlns="http://www.w3.org/2000/svg" xmlns:xlink="http://www.w3.org/1999/xlink" x="0px" y="0px"
	 width="100%" viewBox="0 0 1055 1024" enable-background="new 0 0 1055 1024" xml:space="preserve">
<path fill="#FEFEFE" opacity="1.000000" stroke="none" 
	d="
M1.000000,347.000000 
	C1.000000,231.333328 1.000000,116.166664 1.000000,1.000000 
	C352.666656,1.000000 704.333313,1.000000 1056.000000,1.000000 
	C1056.000000,342.333344 1056.000000,683.666687 1056.000000,1025.000000 
	C704.333313,1025.000000 352.666656,1025.000000 1.000000,1025.000000 
	C1.000000,799.166687 1.000000,573.333313 1.000000,347.000000 
M383.499847,1010.194763 
	C521.984924,1010.182861 660.469971,1010.133484 798.955017,1010.188110 
	C829.687317,1010.200256 859.449951,1004.811340 887.219727,991.851257 
	C981.020020,948.074890 1034.719116,875.219482 1035.998779,770.718567 
	C1038.020874,605.594482 1036.430176,440.426361 1036.428467,275.276886 
	C1036.428223,251.985977 1033.355713,229.153305 1027.454590,206.642288 
	C1000.388733,103.395180 902.665771,27.454624 795.661377,27.296610 
	C628.845581,27.050274 462.029083,27.261902 295.212921,27.183466 
	C244.522736,27.159632 198.144012,41.445202 157.130981,70.864868 
	C88.877754,119.824623 52.468643,186.771744 52.032299,270.992249 
	C51.175823,436.304230 51.630875,601.624023 51.973755,766.939636 
	C52.008759,783.817627 53.459888,800.999573 56.845985,817.508789 
	C69.207870,877.780090 101.139633,926.061401 150.290802,962.722534 
	C192.062195,993.879028 239.000854,1010.464783 291.509277,1010.207336 
	C321.838776,1010.058655 352.169617,1010.183105 383.499847,1010.194763 
z"/>
<path fill="#020202" opacity="1.000000" stroke="none" 
	d="
M382.999847,1010.189697 
	C352.169617,1010.183105 321.838776,1010.058655 291.509277,1010.207336 
	C239.000854,1010.464783 192.062195,993.879028 150.290802,962.722534 
	C101.139633,926.061401 69.207870,877.780090 56.845985,817.508789 
	C53.459888,800.999573 52.008759,783.817627 51.973755,766.939636 
	C51.630875,601.624023 51.175823,436.304230 52.032299,270.992249 
	C52.468643,186.771744 88.877754,119.824623 157.130981,70.864868 
	C198.144012,41.445202 244.522736,27.159632 295.212921,27.183466 
	C462.029083,27.261902 628.845581,27.050274 795.661377,27.296610 
	C902.665771,27.454624 1000.388733,103.395180 1027.454590,206.642288 
	C1033.355713,229.153305 1036.428223,251.985977 1036.428467,275.276886 
	C1036.430176,440.426361 1038.020874,605.594482 1035.998779,770.718567 
	C1034.719116,875.219482 981.020020,948.074890 887.219727,991.851257 
	C859.449951,1004.811340 829.687317,1010.200256 798.955017,1010.188110 
	C660.469971,1010.133484 521.984924,1010.182861 382.999847,1010.189697 
M879.689697,94.766808 
	C854.084229,82.164375 827.158997,74.927155 798.483765,74.925461 
	C628.662537,74.915428 458.841187,74.855217 289.020233,75.077606 
	C277.776917,75.092323 266.319580,76.293243 255.328903,78.652550 
	C164.129135,98.229813 99.211166,177.803757 99.010513,271.083160 
	C98.655251,436.237305 98.859665,601.392700 98.882530,766.547607 
	C98.886284,793.666504 104.184372,819.677124 114.696236,844.790222 
	C143.956314,914.693237 214.940887,962.777039 290.674744,962.847656 
	C460.329163,963.005859 629.983826,962.910461 799.638428,962.856873 
	C823.921814,962.849243 847.542664,958.351624 869.493408,948.139771 
	C946.093567,912.504150 986.830322,852.561218 989.168945,767.644958 
	C989.898193,741.167175 989.266663,714.651978 989.261047,688.153870 
	C989.232056,550.330444 989.174133,412.507080 989.203979,274.683685 
	C989.209167,250.628998 985.466614,227.205032 977.200623,204.673615 
	C959.204224,155.618713 926.508301,119.354248 879.689697,94.766808 
z"/>
<path fill="#CFDCFD" opacity="1.000000" stroke="none" 
	d="
M880.035156,94.907394 
	C926.508301,119.354248 959.204224,155.618713 977.200623,204.673615 
	C985.466614,227.205032 989.209167,250.628998 989.203979,274.683685 
	C989.174133,412.507080 989.232056,550.330444 989.261047,688.153870 
	C989.266663,714.651978 989.898193,741.167175 989.168945,767.644958 
	C986.830322,852.561218 946.093567,912.504150 869.493408,948.139771 
	C847.542664,958.351624 823.921814,962.849243 799.638428,962.856873 
	C629.983826,962.910461 460.329163,963.005859 290.674744,962.847656 
	C214.940887,962.777039 143.956314,914.693237 114.696236,844.790222 
	C104.184372,819.677124 98.886284,793.666504 98.882530,766.547607 
	C98.859665,601.392700 98.655251,436.237305 99.010513,271.083160 
	C99.211166,177.803757 164.129135,98.229813 255.328903,78.652550 
	C266.319580,76.293243 277.776917,75.092323 289.020233,75.077606 
	C458.841187,74.855217 628.662537,74.915428 798.483765,74.925461 
	C827.158997,74.927155 854.084229,82.164375 880.035156,94.907394 
M670.876099,871.148315 
	C671.028687,870.855896 671.181274,870.563477 671.012024,870.211731 
	C671.012024,870.211731 671.326050,870.304199 671.847107,870.025757 
	C672.256409,869.366028 672.665649,868.706299 673.001221,868.009766 
	C673.001221,868.009766 673.053284,868.073730 673.635254,867.709412 
	C677.708618,861.401184 679.835266,854.597656 678.985596,846.348694 
	C678.919983,845.907349 678.854309,845.466003 678.896362,844.217224 
	C677.439209,840.028625 675.981995,835.839966 674.438660,831.637817 
	C674.438660,831.637817 674.471680,831.557068 674.294495,830.950439 
	C673.545593,829.943909 672.796692,828.937378 671.998596,827.989990 
	C671.998596,827.989990 672.068359,827.957764 671.870544,827.328125 
	C670.275940,825.844421 668.681274,824.360718 667.017456,822.978943 
	C667.017456,822.978943 667.117981,822.907715 666.871704,822.392517 
	C666.384338,822.108826 665.897034,821.825134 665.281433,821.584961 
	C665.281433,821.584961 665.356506,821.472290 664.982544,821.000305 
	C664.099121,820.528137 663.215698,820.055969 662.098328,819.573669 
	C662.098328,819.573669 662.327698,819.618958 662.031494,819.185608 
	C661.697144,819.101318 661.362793,819.017090 661.016846,819.001770 
	C661.016846,819.001770 661.066467,818.952393 660.587219,818.413879 
	C657.740845,817.550537 654.936829,816.167358 652.039246,815.930725 
	C645.751099,815.417297 639.416016,815.396729 633.098633,815.343994 
	C623.326721,815.262451 613.553589,815.322571 603.265137,815.322571 
	C603.265137,825.945190 603.264832,836.051147 603.265259,846.157104 
	C603.266235,867.629333 603.273071,889.101501 603.261414,910.573730 
	C603.260010,913.141724 602.868958,915.962708 607.937439,914.979309 
	C612.618774,914.940674 617.300110,914.902039 622.556824,914.996216 
	C622.869080,914.632568 623.181335,914.268921 623.674500,912.998352 
	C623.675110,902.652649 623.675781,892.306946 624.637634,881.762634 
	C632.439636,881.755066 640.244202,881.869568 648.042725,881.701172 
	C654.252441,881.567078 660.213074,880.357605 665.021973,876.015869 
	C665.021973,876.015869 665.079834,876.118530 665.658691,875.981079 
	C666.214661,875.439331 666.770691,874.897583 667.237122,874.161438 
	C667.237122,874.161438 667.313782,874.347168 667.791016,874.194275 
	C667.989990,873.936340 668.189026,873.678345 668.241577,873.134766 
	C668.241577,873.134766 668.434265,873.391418 668.877625,873.205322 
	C669.156860,873.013062 669.329834,872.750732 669.184937,872.098083 
	C669.184937,872.098083 669.433655,872.390564 669.877380,872.202698 
	C670.156494,872.008728 670.328735,871.744995 670.144287,871.142395 
	C670.144287,871.142395 670.427307,871.376282 670.876099,871.148315 
M854.176758,898.301697 
	C853.790100,898.164124 853.403442,898.026489 852.086121,897.747803 
	C836.113342,897.801758 820.140564,897.855713 803.446899,897.424500 
	C803.282349,895.457214 802.976562,893.489990 802.974731,891.522583 
	C802.952515,868.050293 802.975525,844.577942 802.986572,821.105652 
	C802.987366,819.342468 802.986633,817.579224 802.986633,815.765198 
	C795.994568,815.765198 789.609436,815.765198 783.246216,815.765198 
	C783.246216,849.040894 783.246216,881.931213 783.246216,914.807983 
	C785.708130,914.807983 787.853760,914.807983 790.886047,914.966431 
	C793.590942,914.912354 796.295776,914.858215 799.791992,914.954102 
	C800.860901,914.905334 801.929810,914.856567 803.885193,914.969238 
	C806.590942,914.915344 809.296753,914.861450 812.928772,914.958313 
	C819.618103,914.907227 826.307495,914.856140 833.659302,914.961731 
	C834.107056,914.909485 834.554871,914.857239 835.849426,914.955322 
	C837.565247,914.904419 839.281128,914.853455 841.739624,914.965088 
	C842.494019,914.912781 843.248413,914.860413 844.893188,914.961121 
	C847.600037,914.925903 850.306946,914.890686 853.906799,914.708557 
	C853.995911,909.462097 854.085022,904.215576 854.176758,898.301697 
M393.010986,387.924042 
	C393.010986,387.924042 393.124969,388.000885 393.013641,388.930786 
	C393.003510,451.356689 393.067078,513.782837 392.871887,576.208130 
	C392.851868,582.605408 391.382507,589.013123 390.404755,595.388184 
	C389.399536,601.942566 387.454468,608.433167 387.183136,615.003845 
	C386.490234,631.784180 386.329651,648.593262 386.299561,665.391418 
	C386.284088,674.022644 385.912689,682.887390 387.688507,691.223511 
	C389.564697,700.031128 393.744202,708.358337 397.036621,716.849243 
	C398.513977,720.659119 400.281250,724.356506 401.958801,728.867188 
	C405.882294,742.209656 412.796539,753.612549 424.729523,761.121094 
	C440.594269,771.103760 458.435120,774.697327 477.428986,776.484436 
	C494.624420,777.935791 511.804932,780.325500 529.019104,780.599731 
	C550.269897,780.938354 571.556152,779.689270 592.810913,778.757385 
	C599.559326,778.461426 606.256042,776.985413 613.853882,776.153320 
	C628.619995,774.571777 642.995850,771.374695 656.440002,764.922852 
	C672.098755,757.408264 681.290100,744.540344 686.492310,727.683350 
	C688.889832,721.662231 690.774048,715.368530 693.795654,709.678833 
	C699.449341,699.032471 701.194458,687.793762 701.055176,675.946899 
	C700.841736,657.790833 701.082886,639.629456 700.875183,621.473267 
	C700.814697,616.186157 700.063904,610.883057 699.310181,605.633179 
	C697.968262,596.286255 695.161316,586.982849 695.096985,577.646545 
	C694.673645,516.176880 694.815796,454.703308 694.797241,393.231018 
	C694.796753,391.527527 695.061768,389.823944 695.257202,387.465607 
	C697.542175,388.415253 699.033325,389.054474 700.539124,389.657257 
	C705.478333,391.634460 710.326843,393.904114 715.388428,395.493805 
	C722.447205,397.710663 726.720215,394.389832 726.987854,387.043549 
	C727.225342,380.526184 724.784485,375.023376 720.632446,370.188568 
	C714.683838,363.261780 707.483887,358.038147 699.237000,354.096161 
	C697.424561,353.229828 695.005249,351.043915 694.986877,349.441223 
	C694.881775,340.311768 694.895081,331.118195 695.876404,322.055573 
	C696.999756,311.681641 700.243042,301.465668 700.668701,291.103149 
	C701.488647,271.144775 701.526917,251.110260 700.757690,231.150925 
	C700.419434,222.373108 697.911865,213.517303 695.303528,205.030594 
	C692.232300,195.037582 688.455505,185.189163 684.082703,175.693390 
	C681.072754,169.157272 677.225708,162.720627 672.517944,157.314941 
	C664.064697,147.608459 652.203979,142.937714 640.322754,139.011230 
	C613.848389,130.262039 586.284607,127.776909 558.692200,127.401093 
	C536.457214,127.098251 514.141418,128.410446 491.954712,130.176422 
	C472.223969,131.746887 452.765442,135.438797 434.572418,143.997757 
	C419.004181,151.321884 407.043518,161.781052 402.102081,179.005966 
	C400.502869,184.580475 398.305481,190.030121 395.897858,195.316528 
	C390.257568,207.701004 386.207520,220.437531 386.179260,234.186523 
	C386.146698,250.012512 385.873444,265.848450 386.343903,281.661041 
	C386.619629,290.927826 387.126984,300.408081 389.335114,309.346436 
	C392.822296,323.462219 393.471649,337.593231 392.996582,351.995148 
	C392.996582,351.995148 392.927551,351.915497 392.249847,352.077423 
	C386.161102,355.747772 379.760010,358.996094 374.071106,363.206726 
	C368.326782,367.458313 363.398529,372.865112 361.593597,380.092957 
	C360.395264,384.891632 359.295868,390.363556 363.306976,394.233704 
	C367.432770,398.214478 372.345917,395.702637 376.843750,394.003448 
	C382.245605,391.962799 387.624634,389.861572 393.010986,387.924042 
M413.879425,901.491394 
	C413.872559,904.988403 413.681305,908.500732 413.969482,911.973267 
	C414.057678,913.035828 415.424591,914.820679 416.269196,914.858398 
	C422.010284,915.114868 427.768250,914.992615 433.947449,914.992615 
	C433.947449,904.864502 434.087036,895.564331 433.876190,886.272095 
	C433.796112,882.741028 434.985046,881.475464 438.451996,881.738708 
	C441.599487,881.977844 444.791107,882.035156 447.935913,881.802612 
	C451.342377,881.550842 453.377808,882.753479 455.102234,885.803955 
	C459.848022,894.199280 464.897247,902.427185 470.001862,910.611938 
	C471.060211,912.308899 472.797699,914.670654 474.356689,914.778320 
	C481.049652,915.240417 487.792786,914.975464 495.654083,914.975464 
	C487.765442,901.867432 480.520538,889.829041 473.207520,877.677429 
	C474.740540,876.619385 475.974060,875.785034 477.190094,874.926025 
	C487.946808,867.327759 492.961700,853.426208 489.791595,840.009277 
	C486.782745,827.274841 476.202728,817.043152 462.850677,816.056091 
	C448.445953,814.991211 433.924164,815.609131 419.468842,815.075012 
	C414.604248,814.895264 413.733978,816.706055 413.763458,821.064209 
	C413.942596,847.540161 413.865479,874.017822 413.879425,901.491394 
M526.107056,815.233948 
	C520.178650,815.233948 514.250244,815.233948 508.377960,815.233948 
	C508.377960,848.888916 508.377960,881.747681 508.377960,914.643372 
	C515.090576,914.643372 521.330322,914.643372 528.155334,914.643372 
	C528.155334,908.164551 528.881714,901.934082 527.999207,895.940552 
	C526.332214,884.619568 534.358765,879.528870 540.842712,872.772034 
	C541.852051,874.031738 542.498169,874.765808 543.065186,875.556641 
	C551.593872,887.451355 560.073242,899.382019 568.681885,911.218567 
	C569.773315,912.719238 571.472107,914.719360 572.987854,914.807983 
	C579.689331,915.199829 586.426636,914.977539 593.913696,914.977539 
	C592.724060,913.074768 592.101440,911.945068 591.354614,910.904480 
	C580.009216,895.095032 568.720520,879.243835 557.227417,863.542297 
	C554.966553,860.453552 554.872009,858.359192 557.542419,855.456116 
	C563.054443,849.463806 568.179138,843.115417 573.469177,836.918640 
	C579.229614,830.170715 584.996948,823.428711 590.761353,816.684204 
	C590.555481,816.166077 590.349609,815.648010 590.143738,815.129883 
	C584.371338,815.129883 578.585388,814.904663 572.833618,815.249390 
	C570.758484,815.373779 568.210510,816.347107 566.829346,817.822998 
	C560.354919,824.741455 554.180359,831.942688 547.959229,839.095520 
	C541.704102,846.287659 535.520508,853.542053 529.305481,860.769104 
	C528.132446,858.526001 528.131775,856.766052 528.132568,855.006042 
	C528.137756,843.516541 528.190247,832.026672 528.097107,820.537964 
	C528.083374,818.836853 527.382629,817.141357 526.107056,815.233948 
M234.850235,872.500000 
	C234.850235,886.567566 234.850235,900.635132 234.850235,914.609497 
	C242.059311,914.609497 248.296982,914.609497 255.089645,914.609497 
	C255.089645,903.631165 255.089645,893.047058 255.089645,881.828430 
	C262.761749,881.828430 269.887146,882.026001 276.994171,881.750671 
	C280.940582,881.597778 285.055573,881.236206 288.751282,879.968079 
	C304.356598,874.613220 313.293915,857.472412 309.473785,840.917053 
	C306.478302,827.935730 296.423370,817.002747 284.446259,816.226318 
	C268.371521,815.184143 252.199356,815.643005 236.068726,815.487793 
	C235.812271,815.485291 235.552094,815.869446 234.851807,816.421387 
	C234.851807,834.548462 234.851807,853.024231 234.850235,872.500000 
M337.199524,834.677979 
	C327.090088,861.172241 316.980621,887.666504 306.555084,914.989197 
	C313.113495,914.989197 318.730255,914.868042 324.337982,915.040405 
	C327.134857,915.126404 328.528381,914.114441 329.371460,911.432007 
	C331.164368,905.727295 333.362640,900.150940 335.209045,894.461670 
	C336.055023,891.855042 337.425568,890.876526 340.252075,890.927063 
	C349.737549,891.096863 359.230194,891.075684 368.715820,890.899292 
	C371.485352,890.847839 372.921600,891.700195 373.838684,894.345886 
	C375.906342,900.310791 378.147797,906.223633 380.588043,912.044678 
	C381.102142,913.270996 382.736694,914.792297 383.916351,914.846619 
	C390.023590,915.128052 396.150757,914.977539 402.749481,914.977539 
	C402.163208,913.146362 401.828796,911.900452 401.371033,910.701721 
	C390.697601,882.750488 380.208130,854.726624 369.245209,826.889282 
	C363.567902,812.473206 367.369629,815.618286 352.090393,815.164917 
	C351.092377,815.135315 350.080566,815.257568 349.096375,815.136597 
	C345.978546,814.753540 344.157257,815.997742 343.127350,819.032288 
	C341.418671,824.067017 339.410889,829.000244 337.199524,834.677979 
M747.646667,850.823853 
	C744.900085,843.690918 742.127380,836.567993 739.412476,829.422974 
	C734.045654,815.298889 734.057739,815.421082 719.025757,815.292725 
	C715.314575,815.261047 713.483459,816.285583 712.119019,819.892029 
	C701.594849,847.708069 690.827209,875.431885 680.160583,903.194092 
	C678.708130,906.974365 677.397217,910.809082 675.859375,915.065308 
	C682.213501,915.065308 687.873230,914.905640 693.517395,915.131836 
	C696.390747,915.246948 697.573914,914.183716 698.403748,911.511353 
	C700.176147,905.803345 702.398560,900.236755 704.337769,894.578308 
	C705.172058,892.143738 706.276672,890.814941 709.277222,890.883545 
	C719.096191,891.108093 728.926758,890.834961 738.744629,891.082092 
	C740.191284,891.118530 742.311646,892.627686 742.891541,893.981689 
	C745.439880,899.932007 747.458191,906.107178 749.867004,912.121399 
	C750.328064,913.272827 751.651306,914.858521 752.629639,914.896912 
	C759.006775,915.146851 765.398560,915.025391 772.342285,915.025391 
	C764.011719,893.366943 755.968567,872.455750 747.646667,850.823853 
z"/>
<path fill="#FB5B91" opacity="1.000000" stroke="none" 
	d="
M612.976318,776.049438 
	C606.256042,776.985413 599.559326,778.461426 592.810913,778.757385 
	C571.556152,779.689270 550.269897,780.938354 529.019104,780.599731 
	C511.804932,780.325500 494.624420,777.935791 476.934784,775.986694 
	C475.602020,774.984009 474.763458,774.479004 473.901947,773.618652 
	C470.682556,764.233459 464.956146,758.456116 455.289062,755.702637 
	C443.120544,752.236572 431.345703,747.196350 423.855743,736.079163 
	C418.885681,728.702209 412.766602,725.404358 403.753357,728.260986 
	C403.513794,728.206726 403.033875,728.101929 403.024292,727.708008 
	C401.707367,723.749512 400.739960,720.012268 399.032532,716.650879 
	C392.420837,703.634460 388.115021,690.339539 388.790985,675.299255 
	C389.619904,656.855286 388.877838,638.344727 389.072723,619.865662 
	C389.126465,614.770142 389.884644,609.649841 390.698730,604.602051 
	C391.957428,596.797729 394.754517,589.052795 394.797394,581.271118 
	C395.144958,518.170837 395.013580,455.067963 394.930054,391.965973 
	C394.928314,390.643494 393.752838,389.322540 393.124969,388.000885 
	C393.124969,388.000885 393.010986,387.924042 392.934753,387.522430 
	C391.423157,387.070557 389.834106,386.592651 388.578979,387.043793 
	C383.003998,389.047577 377.584564,391.489471 371.991852,393.436829 
	C367.544312,394.985474 363.350464,393.366974 363.300690,389.717590 
	C363.239655,385.243561 363.408386,379.953094 365.672058,376.422455 
	C371.142487,367.890350 378.342743,360.801575 388.207581,356.919250 
	C390.138275,356.159454 391.372253,353.629181 392.927551,351.915497 
	C392.927551,351.915497 392.996582,351.995148 393.363037,351.910034 
	C394.080566,351.495819 394.739532,351.165070 394.737762,350.837921 
	C394.690521,342.208679 395.169647,333.521790 394.334381,324.964264 
	C393.020599,311.503571 390.599121,298.154236 389.086243,284.708282 
	C388.438232,278.949036 389.290894,273.030182 388.774841,267.245117 
	C387.219391,249.808121 386.931671,232.306870 391.039948,215.313812 
	C393.742004,204.137177 398.980713,193.571915 403.110321,182.743134 
	C405.050507,177.655411 406.295532,172.107193 409.170471,167.607864 
	C417.896515,153.951614 431.541901,146.520447 446.310516,141.515305 
	C468.406586,134.026886 491.507843,131.428696 514.662476,130.155075 
	C529.029236,129.364838 543.487488,129.601898 557.880005,130.096222 
	C572.430420,130.595947 586.981323,131.661026 601.475830,133.060501 
	C619.516052,134.802338 637.002502,138.946365 653.514099,146.751923 
	C665.096863,152.227524 674.849243,159.550476 679.891846,171.799286 
	C683.934509,181.618866 686.999695,191.929459 691.916199,201.276581 
	C697.162354,211.250641 698.734497,221.685211 698.917969,232.473846 
	C699.226501,250.623169 699.146301,268.783447 698.917542,286.935181 
	C698.838684,293.193939 698.058411,299.472870 697.193970,305.686340 
	C695.623474,316.973816 693.735046,328.216766 692.007935,339.482727 
	C690.644165,348.378723 692.746277,355.525177 701.808228,359.264862 
	C693.947693,365.100067 689.545654,363.594330 685.546326,354.525665 
	C684.227844,351.535797 682.726868,347.870911 678.040161,348.578247 
	C678.259216,346.546387 678.947144,344.846283 678.639526,343.351044 
	C677.995728,340.222198 676.827332,337.201294 675.695923,334.116028 
	C675.517395,334.095978 675.165588,334.168854 674.794312,334.159882 
	C673.633179,334.889465 672.483154,335.480377 672.110413,336.389893 
	C669.098633,343.738800 665.633423,350.974304 663.438232,358.571411 
	C657.536499,378.996246 649.592346,398.720856 647.480225,420.383118 
	C645.718140,438.454651 645.181519,456.426300 645.089905,474.488770 
	C645.083923,475.662903 646.223145,476.842865 646.944824,478.170349 
	C647.059937,478.320587 647.172119,478.681732 647.117920,479.005463 
	C647.044922,479.547211 647.026123,479.765228 646.802612,480.232544 
	C644.676270,479.649200 642.754700,478.816589 639.761902,477.519775 
	C640.812256,481.202118 640.759644,484.259888 642.255371,485.641083 
	C646.403076,489.471222 651.371033,491.210022 657.333923,489.489685 
	C660.873596,488.468506 664.724976,488.259033 668.445496,488.190125 
	C675.982422,488.050507 679.865356,492.044556 679.979187,499.804047 
	C680.076904,506.460876 680.118164,513.122864 679.972534,519.777954 
	C679.748901,529.995850 679.103149,540.209412 679.087158,550.425476 
	C679.072937,559.554321 679.942749,568.684692 679.923523,577.813416 
	C679.901306,588.336975 679.367371,598.860840 678.968079,609.381226 
	C678.893555,611.343811 678.539429,613.322266 678.085205,615.239075 
	C676.303406,622.758118 674.157043,623.656799 668.916199,618.228210 
	C664.819092,613.984375 661.447937,612.142761 656.671875,617.018799 
	C655.539551,618.174805 653.251831,618.106567 651.671326,618.936157 
	C648.778320,620.454651 646.361938,622.192627 649.937866,625.636658 
	C650.691101,626.362000 650.428711,628.074097 650.795715,629.282532 
	C651.495239,631.585754 652.310974,633.853699 653.374573,637.017029 
	C657.180298,632.545959 659.843628,629.416931 662.827087,625.911804 
	C664.899719,627.186340 666.950073,628.447083 669.131165,629.788330 
	C675.290405,627.256836 677.930481,617.839844 685.474060,620.299561 
	C688.120972,618.377441 690.286560,617.424561 691.469849,615.769409 
	C692.626160,614.151917 693.054993,611.848267 693.282837,609.788269 
	C693.449524,608.280518 692.416077,606.648438 692.548889,605.126831 
	C692.818054,602.042969 693.515625,598.996460 694.412781,596.031372 
	C695.858765,601.378723 697.520813,606.589722 697.875061,611.888123 
	C698.613770,622.936462 698.796753,634.029053 698.955200,645.107117 
	C699.121521,656.738770 699.559998,668.412048 698.797363,679.995850 
	C698.267029,688.051514 696.607056,696.206848 694.177429,703.916138 
	C691.570862,712.186768 687.472900,719.987305 684.032349,728.074646 
	C684.038879,728.156250 684.042847,728.319946 683.701050,728.125488 
	C681.572815,727.624207 679.786438,727.317383 677.939209,726.661255 
	C675.263123,723.821716 673.818542,724.911621 672.687195,728.067749 
	C669.803528,730.481934 666.737061,732.371643 664.749573,735.059326 
	C658.938721,742.917542 651.661316,748.636353 642.521790,752.008606 
	C637.857178,753.729736 633.172241,755.396301 628.486694,757.059814 
	C620.415344,759.925293 615.938171,765.873901 613.707214,774.158508 
	C613.316650,774.924500 613.146484,775.487000 612.976318,776.049438 
M423.501495,167.163971 
	C423.245270,167.362305 423.051636,167.609634 422.490845,168.144302 
	C422.223358,168.348892 422.028198,168.607986 421.498535,169.165451 
	C421.243530,169.366211 421.053864,169.616501 420.510193,170.160721 
	C420.255432,170.372192 420.067780,170.632111 419.274414,171.076675 
	C418.826599,172.034042 418.378784,172.991409 417.471222,174.298523 
	C417.280121,174.833267 417.089050,175.367996 416.449951,176.273834 
	C416.263855,176.814850 416.077759,177.355865 415.185364,178.082260 
	C413.459137,184.320267 411.386688,190.493759 410.205109,196.833267 
	C409.820801,198.895203 411.386810,203.006180 412.728882,203.319656 
	C414.883484,203.822937 417.594177,201.945358 420.805664,201.024063 
	C423.574310,199.389725 426.342926,197.755371 429.841156,196.055374 
	C431.262543,195.074890 432.683899,194.094406 434.804382,193.042557 
	C435.892517,192.048096 436.980621,191.053650 438.489685,189.821609 
	C438.758636,189.625229 438.952667,189.371536 439.491608,188.821991 
	C439.759857,188.625137 439.953125,188.371201 440.484283,187.820679 
	C440.742615,187.620773 440.935059,187.370255 441.751495,186.962158 
	C444.849823,185.240402 447.329346,183.096497 447.787140,178.960312 
	C448.561554,177.674103 449.335968,176.387909 450.789734,174.973053 
	C455.303802,170.505997 459.285583,165.726913 460.784485,158.926483 
	C461.652924,156.312775 463.790283,153.289505 463.108215,151.176254 
	C461.928650,147.521683 457.999420,148.017227 454.995148,149.230148 
	C447.195679,152.379028 439.373901,155.536545 431.852875,159.277435 
	C429.115906,160.638779 427.204987,163.661026 424.498810,166.167023 
	C424.229706,166.362411 424.033478,166.614517 423.501495,167.163971 
M439.399567,372.010162 
	C442.720490,382.417572 442.781647,382.483917 453.432495,379.380493 
	C476.374268,372.695892 499.811157,368.612030 523.618896,367.240723 
	C561.986511,365.030823 599.758850,368.899170 636.669373,380.028870 
	C643.872070,382.200684 645.225220,381.472412 647.465393,374.150818 
	C654.718750,350.444916 661.674194,326.644836 669.225281,303.034851 
	C671.765015,295.093811 670.139343,288.598419 664.188965,283.707062 
	C657.552979,278.252045 650.544556,272.847534 642.873169,269.118347 
	C583.324097,240.170731 522.390137,238.642715 460.855988,261.976959 
	C448.860077,266.525909 437.573700,273.444763 426.793365,280.537170 
	C418.663147,285.885986 415.280762,293.826080 418.772064,304.420197 
	C426.060150,326.535370 432.404449,348.961578 439.399567,372.010162 
M437.908875,643.413513 
	C437.016327,647.302673 436.052856,651.177185 435.247131,655.084290 
	C433.904510,661.594116 435.101410,664.446228 441.256744,666.966003 
	C448.630432,669.984497 456.080536,673.044983 463.771301,675.022522 
	C508.071228,686.413086 552.895386,687.562012 597.972168,680.722656 
	C614.607361,678.198669 631.007812,674.463806 646.253723,666.950073 
	C652.858337,663.695129 653.829346,661.337952 652.181763,654.149780 
	C648.726685,639.075806 645.279541,623.999939 641.804993,608.930420 
	C640.154785,601.772827 638.891479,600.989868 631.803833,602.676392 
	C609.917480,607.884338 587.797668,611.639832 565.313049,612.849182 
	C528.168579,614.846985 491.516266,611.301880 455.345581,602.650024 
	C448.938385,601.117432 447.440582,602.084595 445.922638,608.574951 
	C443.272583,619.905945 440.660370,631.245789 437.908875,643.413513 
M438.567017,421.985046 
	C434.191681,395.000488 417.494568,341.457947 410.294464,333.999969 
	C410.294464,381.735687 410.324066,428.196899 410.234314,474.657867 
	C410.227631,478.115326 411.637665,478.883972 414.718292,478.816681 
	C421.712708,478.663910 428.720490,478.569061 435.707367,478.843506 
	C439.630371,478.997589 441.027985,477.782135 440.830292,473.769196 
	C439.994904,456.812927 439.387939,439.845428 438.567017,421.985046 
M647.948608,540.497437 
	C648.314087,543.803711 648.657410,547.112671 649.048584,550.415894 
	C651.640442,572.299744 658.564392,592.886230 668.009338,612.666321 
	C669.028381,614.800354 671.457703,616.260864 673.232849,618.033813 
	C674.075684,615.538208 675.619446,613.052856 675.656250,610.545410 
	C676.206299,573.070374 676.560669,535.592468 676.943970,498.115021 
	C676.960510,496.500793 676.811096,494.884857 676.737366,493.234009 
	C666.624573,493.234009 656.932129,493.234009 647.918091,493.234009 
	C647.918091,508.987244 647.918091,524.281311 647.948608,540.497437 
M410.728027,497.597626 
	C411.160522,535.738892 411.557861,573.880737 412.122894,612.019958 
	C412.153137,614.063965 413.594147,616.087158 414.378418,618.119995 
	C415.975250,616.653320 418.294403,615.487305 419.050446,613.670776 
	C423.583221,602.779663 428.236053,591.898071 431.947845,580.714294 
	C439.106842,559.143860 440.283264,536.670593 440.692474,514.157166 
	C440.818695,507.212433 440.712067,500.263428 440.712067,492.790985 
	C431.196289,492.790985 422.235809,492.683350 413.287018,492.958160 
	C412.397095,492.985504 411.578735,495.343994 410.728027,497.597626 
M671.515503,179.125244 
	C668.962219,172.537491 664.717773,167.063858 658.638794,163.737823 
	C650.100769,159.066437 641.140259,155.148453 632.243652,151.169296 
	C630.675049,150.467697 628.535156,151.043152 626.659119,151.028870 
	C626.858887,153.064270 626.439697,155.453934 627.366455,157.073288 
	C631.237061,163.836258 635.608093,170.310150 639.617676,176.996780 
	C646.797974,188.971268 657.848816,196.053848 670.238464,201.426056 
	C674.975830,203.480194 676.633545,202.315247 675.785706,197.251663 
	C674.803711,191.386993 673.185608,185.628815 671.515503,179.125244 
z"/>
<path fill="#F46095" opacity="1.000000" stroke="none" 
	d="
M413.876709,900.993164 
	C413.865479,874.017822 413.942596,847.540161 413.763458,821.064209 
	C413.733978,816.706055 414.604248,814.895264 419.468842,815.075012 
	C433.924164,815.609131 448.445953,814.991211 462.850677,816.056091 
	C476.202728,817.043152 486.782745,827.274841 489.791595,840.009277 
	C492.961700,853.426208 487.946808,867.327759 477.190094,874.926025 
	C475.974060,875.785034 474.740540,876.619385 473.207520,877.677429 
	C480.520538,889.829041 487.765442,901.867432 495.654083,914.975464 
	C487.792786,914.975464 481.049652,915.240417 474.356689,914.778320 
	C472.797699,914.670654 471.060211,912.308899 470.001862,910.611938 
	C464.897247,902.427185 459.848022,894.199280 455.102234,885.803955 
	C453.377808,882.753479 451.342377,881.550842 447.935913,881.802612 
	C444.791107,882.035156 441.599487,881.977844 438.451996,881.738708 
	C434.985046,881.475464 433.796112,882.741028 433.876190,886.272095 
	C434.087036,895.564331 433.947449,904.864502 433.947449,914.992615 
	C427.768250,914.992615 422.010284,915.114868 416.269196,914.858398 
	C415.424591,914.820679 414.057678,913.035828 413.969482,911.973267 
	C413.681305,908.500732 413.872559,904.988403 413.876709,900.993164 
M469.938202,851.021179 
	C469.942474,849.191223 470.083069,847.349548 469.926758,845.533386 
	C469.335052,838.659546 464.380035,833.339355 457.956268,832.926453 
	C451.659241,832.521545 445.326416,832.620544 439.040741,832.110840 
	C434.677277,831.757019 433.658112,833.550293 433.865082,837.546753 
	C434.174561,843.522888 433.979187,849.525269 433.993530,855.516479 
	C434.000092,858.249756 433.994629,860.983032 433.994629,863.999939 
	C441.095337,863.999939 447.243103,864.009827 453.390839,863.997742 
	C464.087708,863.976685 466.761871,861.998596 469.938202,851.021179 
z"/>
<path fill="#F36194" opacity="1.000000" stroke="none" 
	d="
M526.553345,815.338623 
	C527.382629,817.141357 528.083374,818.836853 528.097107,820.537964 
	C528.190247,832.026672 528.137756,843.516541 528.132568,855.006042 
	C528.131775,856.766052 528.132446,858.526001 529.305481,860.769104 
	C535.520508,853.542053 541.704102,846.287659 547.959229,839.095520 
	C554.180359,831.942688 560.354919,824.741455 566.829346,817.822998 
	C568.210510,816.347107 570.758484,815.373779 572.833618,815.249390 
	C578.585388,814.904663 584.371338,815.129883 590.143738,815.129883 
	C590.349609,815.648010 590.555481,816.166077 590.761353,816.684204 
	C584.996948,823.428711 579.229614,830.170715 573.469177,836.918640 
	C568.179138,843.115417 563.054443,849.463806 557.542419,855.456116 
	C554.872009,858.359192 554.966553,860.453552 557.227417,863.542297 
	C568.720520,879.243835 580.009216,895.095032 591.354614,910.904480 
	C592.101440,911.945068 592.724060,913.074768 593.913696,914.977539 
	C586.426636,914.977539 579.689331,915.199829 572.987854,914.807983 
	C571.472107,914.719360 569.773315,912.719238 568.681885,911.218567 
	C560.073242,899.382019 551.593872,887.451355 543.065186,875.556641 
	C542.498169,874.765808 541.852051,874.031738 540.842712,872.772034 
	C534.358765,879.528870 526.332214,884.619568 527.999207,895.940552 
	C528.881714,901.934082 528.155334,908.164551 528.155334,914.643372 
	C521.330322,914.643372 515.090576,914.643372 508.377960,914.643372 
	C508.377960,881.747681 508.377960,848.888916 508.377960,815.233948 
	C514.250244,815.233948 520.178650,815.233948 526.553345,815.338623 
z"/>
<path fill="#F46195" opacity="1.000000" stroke="none" 
	d="
M234.851013,872.000000 
	C234.851807,853.024231 234.851807,834.548462 234.851807,816.421387 
	C235.552094,815.869446 235.812271,815.485291 236.068726,815.487793 
	C252.199356,815.643005 268.371521,815.184143 284.446259,816.226318 
	C296.423370,817.002747 306.478302,827.935730 309.473785,840.917053 
	C313.293915,857.472412 304.356598,874.613220 288.751282,879.968079 
	C285.055573,881.236206 280.940582,881.597778 276.994171,881.750671 
	C269.887146,882.026001 262.761749,881.828430 255.089645,881.828430 
	C255.089645,893.047058 255.089645,903.631165 255.089645,914.609497 
	C248.296982,914.609497 242.059311,914.609497 234.850235,914.609497 
	C234.850235,900.635132 234.850235,886.567566 234.851013,872.000000 
M289.769867,851.904541 
	C290.382080,839.830627 286.587402,833.758545 276.765594,832.596680 
	C270.535492,831.859741 264.163727,832.212036 257.859924,832.324463 
	C256.930023,832.341064 255.241287,833.719788 255.226898,834.492920 
	C255.045761,844.225464 255.107986,853.962524 255.107986,864.156860 
	C261.850769,864.156860 267.968048,864.182617 274.085052,864.150879 
	C283.684174,864.101135 286.708130,861.843567 289.769867,851.904541 
z"/>
<path fill="#F36194" opacity="1.000000" stroke="none" 
	d="
M337.364319,834.327087 
	C339.410889,829.000244 341.418671,824.067017 343.127350,819.032288 
	C344.157257,815.997742 345.978546,814.753540 349.096375,815.136597 
	C350.080566,815.257568 351.092377,815.135315 352.090393,815.164917 
	C367.369629,815.618286 363.567902,812.473206 369.245209,826.889282 
	C380.208130,854.726624 390.697601,882.750488 401.371033,910.701721 
	C401.828796,911.900452 402.163208,913.146362 402.749481,914.977539 
	C396.150757,914.977539 390.023590,915.128052 383.916351,914.846619 
	C382.736694,914.792297 381.102142,913.270996 380.588043,912.044678 
	C378.147797,906.223633 375.906342,900.310791 373.838684,894.345886 
	C372.921600,891.700195 371.485352,890.847839 368.715820,890.899292 
	C359.230194,891.075684 349.737549,891.096863 340.252075,890.927063 
	C337.425568,890.876526 336.055023,891.855042 335.209045,894.461670 
	C333.362640,900.150940 331.164368,905.727295 329.371460,911.432007 
	C328.528381,914.114441 327.134857,915.126404 324.337982,915.040405 
	C318.730255,914.868042 313.113495,914.989197 306.555084,914.989197 
	C316.980621,887.666504 327.090088,861.172241 337.364319,834.327087 
M347.948395,855.467285 
	C345.667389,862.114075 343.386414,868.760864 340.985901,875.755859 
	C350.594940,875.755859 359.308594,875.755859 368.513794,875.755859 
	C363.975342,863.055420 359.593231,850.792603 354.694092,837.082825 
	C352.157837,843.934204 350.163177,849.322571 347.948395,855.467285 
z"/>
<path fill="#2B2D7A" opacity="1.000000" stroke="none" 
	d="
M747.786011,851.184204 
	C755.968567,872.455750 764.011719,893.366943 772.342285,915.025391 
	C765.398560,915.025391 759.006775,915.146851 752.629639,914.896912 
	C751.651306,914.858521 750.328064,913.272827 749.867004,912.121399 
	C747.458191,906.107178 745.439880,899.932007 742.891541,893.981689 
	C742.311646,892.627686 740.191284,891.118530 738.744629,891.082092 
	C728.926758,890.834961 719.096191,891.108093 709.277222,890.883545 
	C706.276672,890.814941 705.172058,892.143738 704.337769,894.578308 
	C702.398560,900.236755 700.176147,905.803345 698.403748,911.511353 
	C697.573914,914.183716 696.390747,915.246948 693.517395,915.131836 
	C687.873230,914.905640 682.213501,915.065308 675.859375,915.065308 
	C677.397217,910.809082 678.708130,906.974365 680.160583,903.194092 
	C690.827209,875.431885 701.594849,847.708069 712.119019,819.892029 
	C713.483459,816.285583 715.314575,815.261047 719.025757,815.292725 
	C734.057739,815.421082 734.045654,815.298889 739.412476,829.422974 
	C742.127380,836.567993 744.900085,843.690918 747.786011,851.184204 
M719.519043,848.990784 
	C716.369507,857.877380 713.219971,866.763977 709.986816,875.886353 
	C719.465332,875.886353 728.405945,875.886353 737.800964,875.886353 
	C733.190918,862.995605 728.701599,850.442444 723.841858,836.853394 
	C722.230347,841.443542 721.032410,844.855713 719.519043,848.990784 
z"/>
<path fill="#2C2E7B" opacity="1.000000" stroke="none" 
	d="
M621.981445,914.863403 
	C617.300110,914.902039 612.618774,914.940674 607.385376,914.549438 
	C606.212891,912.158691 605.059692,910.200012 605.051880,908.236755 
	C604.937317,879.471680 605.048584,850.705750 604.892578,821.941101 
	C604.871033,817.972473 606.023926,816.721619 609.970825,816.904541 
	C626.997559,817.694214 644.149353,815.310303 661.066467,818.952393 
	C661.066467,818.952393 661.016846,819.001770 661.162354,819.202148 
	C661.647827,819.474670 661.987732,819.546814 662.327698,819.618958 
	C662.327698,819.618958 662.098328,819.573669 662.234192,819.949097 
	C663.365540,820.707092 664.361023,821.089722 665.356506,821.472290 
	C665.356506,821.472290 665.281433,821.584961 665.350342,821.893433 
	C665.985474,822.437195 666.551758,822.672424 667.117981,822.907715 
	C667.117981,822.907715 667.017456,822.978943 667.059753,823.281860 
	C668.757507,825.042419 670.412964,826.500061 672.068359,827.957764 
	C672.068359,827.957764 671.998596,827.989990 672.013062,828.330322 
	C672.842285,829.632751 673.656982,830.594910 674.471680,831.557129 
	C674.471680,831.557068 674.438660,831.637817 674.333862,832.034851 
	C675.748962,836.629456 677.268799,840.827087 678.788635,845.024658 
	C678.854309,845.466003 678.919983,845.907349 678.684326,846.961914 
	C676.606445,854.407959 674.829895,861.240845 673.053284,868.073730 
	C673.053284,868.073730 673.001221,868.009766 672.692078,868.068481 
	C672.030640,868.852844 671.678345,869.578552 671.326050,870.304199 
	C671.326050,870.304199 671.012024,870.211731 670.885620,870.284302 
	C670.648621,870.696594 670.537964,871.036438 670.427246,871.376282 
	C670.427307,871.376282 670.144287,871.142395 669.975281,871.266846 
	C669.682068,871.724426 669.557861,872.057495 669.433594,872.390564 
	C669.433655,872.390564 669.184937,872.098083 668.996704,872.245300 
	C668.683777,872.725464 668.559021,873.058472 668.434265,873.391418 
	C668.434265,873.391418 668.241577,873.134766 668.022461,873.259644 
	C667.640198,873.705444 667.476990,874.026306 667.313782,874.347168 
	C667.313782,874.347168 667.237122,874.161438 666.931396,874.190857 
	C666.110413,874.853027 665.595093,875.485779 665.079834,876.118530 
	C665.079834,876.118530 665.021973,876.015869 664.675415,876.032898 
	C655.833618,879.941040 646.857605,880.520691 637.693542,880.048523 
	C634.057434,879.861145 630.389587,879.838745 626.765015,880.116699 
	C625.448669,880.217773 624.216187,881.412231 622.648376,882.384155 
	C622.232788,893.113281 622.114197,903.565979 621.994507,914.229919 
	C621.993469,914.441101 621.981445,914.863403 621.981445,914.863403 
M658.833801,846.810974 
	C657.324097,838.315613 653.834351,833.417664 647.537109,832.958557 
	C639.812744,832.395569 632.016174,832.824341 624.088623,832.824341 
	C624.088623,843.251282 624.088623,853.602173 624.088623,864.271729 
	C630.361267,864.271729 636.312683,864.280212 642.264099,864.269958 
	C653.954773,864.249756 658.660461,859.537598 658.833801,846.810974 
z"/>
<path fill="#DB6E9D" opacity="1.000000" stroke="none" 
	d="
M684.025818,727.993042 
	C687.472900,719.987305 691.570862,712.186768 694.177429,703.916138 
	C696.607056,696.206848 698.267029,688.051514 698.797363,679.995850 
	C699.559998,668.412048 699.121521,656.738770 698.955200,645.107117 
	C698.796753,634.029053 698.613770,622.936462 697.875061,611.888123 
	C697.520813,606.589722 695.858765,601.378723 694.411133,595.598633 
	C693.687622,583.463440 693.276428,571.859192 693.011963,560.251709 
	C692.626038,543.319458 692.125793,526.385559 692.064331,509.450928 
	C691.921753,470.179352 691.992126,430.906952 692.034485,391.634949 
	C692.040100,386.410553 695.210693,384.788086 700.017273,386.978455 
	C704.948303,389.225525 709.964966,391.337555 715.082031,393.110901 
	C722.020020,395.515289 725.945190,391.718475 724.729919,384.463593 
	C723.254578,375.656708 717.531189,369.729553 711.281433,364.280182 
	C708.651306,361.986908 705.126953,360.719147 702.009094,358.985199 
	C692.746277,355.525177 690.644165,348.378723 692.007935,339.482727 
	C693.735046,328.216766 695.623474,316.973816 697.193970,305.686340 
	C698.058411,299.472870 698.838684,293.193939 698.917542,286.935181 
	C699.146301,268.783447 699.226501,250.623169 698.917969,232.473846 
	C698.734497,221.685211 697.162354,211.250641 691.916199,201.276581 
	C686.999695,191.929459 683.934509,181.618866 679.891846,171.799286 
	C674.849243,159.550476 665.096863,152.227524 653.514099,146.751923 
	C637.002502,138.946365 619.516052,134.802338 601.475830,133.060501 
	C586.981323,131.661026 572.430420,130.595947 557.880005,130.096222 
	C543.487488,129.601898 529.029236,129.364838 514.662476,130.155075 
	C491.507843,131.428696 468.406586,134.026886 446.310516,141.515305 
	C431.541901,146.520447 417.896515,153.951614 409.170471,167.607864 
	C406.295532,172.107193 405.050507,177.655411 403.110321,182.743134 
	C398.980713,193.571915 393.742004,204.137177 391.039948,215.313812 
	C386.931671,232.306870 387.219391,249.808121 388.774841,267.245117 
	C389.290894,273.030182 388.438232,278.949036 389.086243,284.708282 
	C390.599121,298.154236 393.020599,311.503571 394.334381,324.964264 
	C395.169647,333.521790 394.690521,342.208679 394.737762,350.837921 
	C394.739532,351.165070 394.080566,351.495819 393.320251,351.879303 
	C393.471649,337.593231 392.822296,323.462219 389.335114,309.346436 
	C387.126984,300.408081 386.619629,290.927826 386.343903,281.661041 
	C385.873444,265.848450 386.146698,250.012512 386.179260,234.186523 
	C386.207520,220.437531 390.257568,207.701004 395.897858,195.316528 
	C398.305481,190.030121 400.502869,184.580475 402.102081,179.005966 
	C407.043518,161.781052 419.004181,151.321884 434.572418,143.997757 
	C452.765442,135.438797 472.223969,131.746887 491.954712,130.176422 
	C514.141418,128.410446 536.457214,127.098251 558.692200,127.401093 
	C586.284607,127.776909 613.848389,130.262039 640.322754,139.011230 
	C652.203979,142.937714 664.064697,147.608459 672.517944,157.314941 
	C677.225708,162.720627 681.072754,169.157272 684.082703,175.693390 
	C688.455505,185.189163 692.232300,195.037582 695.303528,205.030594 
	C697.911865,213.517303 700.419434,222.373108 700.757690,231.150925 
	C701.526917,251.110260 701.488647,271.144775 700.668701,291.103149 
	C700.243042,301.465668 696.999756,311.681641 695.876404,322.055573 
	C694.895081,331.118195 694.881775,340.311768 694.986877,349.441223 
	C695.005249,351.043915 697.424561,353.229828 699.237000,354.096161 
	C707.483887,358.038147 714.683838,363.261780 720.632446,370.188568 
	C724.784485,375.023376 727.225342,380.526184 726.987854,387.043549 
	C726.720215,394.389832 722.447205,397.710663 715.388428,395.493805 
	C710.326843,393.904114 705.478333,391.634460 700.539124,389.657257 
	C699.033325,389.054474 697.542175,388.415253 695.257202,387.465607 
	C695.061768,389.823944 694.796753,391.527527 694.797241,393.231018 
	C694.815796,454.703308 694.673645,516.176880 695.096985,577.646545 
	C695.161316,586.982849 697.968262,596.286255 699.310181,605.633179 
	C700.063904,610.883057 700.814697,616.186157 700.875183,621.473267 
	C701.082886,639.629456 700.841736,657.790833 701.055176,675.946899 
	C701.194458,687.793762 699.449341,699.032471 693.795654,709.678833 
	C690.774048,715.368530 688.889832,721.662231 685.880127,727.891235 
	C684.853943,728.063721 684.439880,728.028381 684.025818,727.993042 
z"/>
<path fill="#2A2C7B" opacity="1.000000" stroke="none" 
	d="
M835.002625,914.804993 
	C834.554871,914.857239 834.107056,914.909485 833.217651,914.503662 
	C826.060242,913.862488 819.344543,913.667969 812.627563,913.552185 
	C812.426514,913.548767 812.211182,914.370544 812.002502,914.807556 
	C809.296753,914.861450 806.590942,914.915344 803.369690,914.562988 
	C801.569702,914.372559 800.285156,914.588318 799.000671,914.804077 
	C796.295776,914.858215 793.590942,914.912354 790.356018,914.536499 
	C788.179321,912.436829 784.874451,912.953491 784.900574,908.983704 
	C785.094543,879.502136 785.023621,850.018555 784.971741,820.535828 
	C784.967285,818.007019 785.807007,816.683533 788.425110,817.023865 
	C792.524658,817.556885 796.612671,818.178589 800.997559,818.804382 
	C800.997559,820.795715 800.997498,822.611389 800.997498,824.427124 
	C800.997498,847.247192 800.948547,870.067566 801.094421,892.886719 
	C801.105652,894.636963 802.492859,896.378479 803.498657,898.417480 
	C820.163086,898.815369 836.569397,898.919678 852.986328,899.484375 
	C852.980347,903.959106 852.963806,907.973511 852.556641,912.042175 
	C849.444946,913.000305 846.723877,913.904175 844.002808,914.808105 
	C843.248413,914.860413 842.494019,914.912781 841.280029,914.536011 
	C838.682495,912.684021 836.602356,911.742249 835.002625,914.804993 
z"/>
<path fill="#DB6E9D" opacity="1.000000" stroke="none" 
	d="
M393.069305,388.465820 
	C393.752838,389.322540 394.928314,390.643494 394.930054,391.965973 
	C395.013580,455.067963 395.144958,518.170837 394.797394,581.271118 
	C394.754517,589.052795 391.957428,596.797729 390.698730,604.602051 
	C389.884644,609.649841 389.126465,614.770142 389.072723,619.865662 
	C388.877838,638.344727 389.619904,656.855286 388.790985,675.299255 
	C388.115021,690.339539 392.420837,703.634460 399.032532,716.650879 
	C400.739960,720.012268 401.707367,723.749512 402.744934,727.728027 
	C402.289124,728.129578 402.103058,728.117249 401.916962,728.104980 
	C400.281250,724.356506 398.513977,720.659119 397.036621,716.849243 
	C393.744202,708.358337 389.564697,700.031128 387.688507,691.223511 
	C385.912689,682.887390 386.284088,674.022644 386.299561,665.391418 
	C386.329651,648.593262 386.490234,631.784180 387.183136,615.003845 
	C387.454468,608.433167 389.399536,601.942566 390.404755,595.388184 
	C391.382507,589.013123 392.851868,582.605408 392.871887,576.208130 
	C393.067078,513.782837 393.003510,451.356689 393.069305,388.465820 
z"/>
<path fill="#292E6F" opacity="1.000000" stroke="none" 
	d="
M803.240479,898.124023 
	C802.492859,896.378479 801.105652,894.636963 801.094421,892.886719 
	C800.948547,870.067566 800.997498,847.247192 800.997498,824.427124 
	C800.997498,822.611389 800.997559,820.795715 800.997559,818.804382 
	C796.612671,818.178589 792.524658,817.556885 788.425110,817.023865 
	C785.807007,816.683533 784.967285,818.007019 784.971741,820.535828 
	C785.023621,850.018555 785.094543,879.502136 784.900574,908.983704 
	C784.874451,912.953491 788.179321,912.436829 789.912720,914.457275 
	C787.853760,914.807983 785.708130,914.807983 783.246216,914.807983 
	C783.246216,881.931213 783.246216,849.040894 783.246216,815.765198 
	C789.609436,815.765198 795.994568,815.765198 802.986633,815.765198 
	C802.986633,817.579224 802.987366,819.342468 802.986572,821.105652 
	C802.975525,844.577942 802.952515,868.050293 802.974731,891.522583 
	C802.976562,893.489990 803.282349,895.457214 803.577881,897.730835 
	C803.708801,898.037231 803.240479,898.124023 803.240479,898.124023 
z"/>
<path fill="#39407B" opacity="1.000000" stroke="none" 
	d="
M660.826843,818.683105 
	C644.149353,815.310303 626.997559,817.694214 609.970825,816.904541 
	C606.023926,816.721619 604.871033,817.972473 604.892578,821.941101 
	C605.048584,850.705750 604.937317,879.471680 605.051880,908.236755 
	C605.059692,910.200012 606.212891,912.158691 606.924011,914.487000 
	C602.868958,915.962708 603.260010,913.141724 603.261414,910.573730 
	C603.273071,889.101501 603.266235,867.629333 603.265259,846.157104 
	C603.264832,836.051147 603.265137,825.945190 603.265137,815.322571 
	C613.553589,815.322571 623.326721,815.262451 633.098633,815.343994 
	C639.416016,815.396729 645.751099,815.417297 652.039246,815.930725 
	C654.936829,816.167358 657.740845,817.550537 660.826843,818.683105 
z"/>
<path fill="#993D58" opacity="1.000000" stroke="none" 
	d="
M401.937866,728.486084 
	C402.103058,728.117249 402.289124,728.129578 402.754517,728.121887 
	C403.033875,728.101929 403.513794,728.206726 403.753723,728.623169 
	C408.554138,741.136475 414.309875,752.468201 425.892426,759.393066 
	C440.656403,768.219971 456.829102,772.686340 473.924927,773.973999 
	C474.763458,774.479004 475.602020,774.984009 476.658997,775.685547 
	C458.435120,774.697327 440.594269,771.103760 424.729523,761.121094 
	C412.796539,753.612549 405.882294,742.209656 401.937866,728.486084 
z"/>
<path fill="#983C59" opacity="1.000000" stroke="none" 
	d="
M684.032349,728.074646 
	C684.439880,728.028381 684.853943,728.063721 685.580200,728.095520 
	C681.290100,744.540344 672.098755,757.408264 656.440002,764.922852 
	C642.995850,771.374695 628.619995,774.571777 613.415100,776.101440 
	C613.146484,775.487000 613.316650,774.924500 614.130859,774.174072 
	C623.659058,772.228943 632.807434,771.279236 641.351562,768.483093 
	C649.579956,765.790283 657.797546,762.085083 664.914429,757.210754 
	C674.903503,750.369324 680.001770,739.512695 684.042847,728.319946 
	C684.042847,728.319946 684.038879,728.156250 684.032349,728.074646 
z"/>
<path fill="#DB6E9D" opacity="1.000000" stroke="none" 
	d="
M392.588684,351.996460 
	C391.372253,353.629181 390.138275,356.159454 388.207581,356.919250 
	C378.342743,360.801575 371.142487,367.890350 365.672058,376.422455 
	C363.408386,379.953094 363.239655,385.243561 363.300690,389.717590 
	C363.350464,393.366974 367.544312,394.985474 371.991852,393.436829 
	C377.584564,391.489471 383.003998,389.047577 388.578979,387.043793 
	C389.834106,386.592651 391.423157,387.070557 392.936005,387.453674 
	C387.624634,389.861572 382.245605,391.962799 376.843750,394.003448 
	C372.345917,395.702637 367.432770,398.214478 363.306976,394.233704 
	C359.295868,390.363556 360.395264,384.891632 361.593597,380.092957 
	C363.398529,372.865112 368.326782,367.458313 374.071106,363.206726 
	C379.760010,358.996094 386.161102,355.747772 392.588684,351.996460 
z"/>
<path fill="#39407B" opacity="1.000000" stroke="none" 
	d="
M622.945435,882.107788 
	C624.216187,881.412231 625.448669,880.217773 626.765015,880.116699 
	C630.389587,879.838745 634.057434,879.861145 637.693542,880.048523 
	C646.857605,880.520691 655.833618,879.941040 664.721436,876.069763 
	C660.213074,880.357605 654.252441,881.567078 648.042725,881.701172 
	C640.244202,881.869568 632.439636,881.755066 623.980042,881.927368 
	C623.322449,882.092041 622.945435,882.107788 622.945435,882.107788 
z"/>
<path fill="#1B2061" opacity="1.000000" stroke="none" 
	d="
M622.648376,882.384155 
	C622.945435,882.107788 623.322449,882.092041 623.499390,882.026611 
	C623.675781,892.306946 623.675110,902.652649 623.333435,913.457642 
	C622.660095,913.950867 622.327881,913.984802 621.995605,914.018738 
	C622.114197,903.565979 622.232788,893.113281 622.648376,882.384155 
z"/>
<path fill="#1B2161" opacity="1.000000" stroke="none" 
	d="
M803.498657,898.417480 
	C803.240479,898.124023 803.708801,898.037231 803.938293,897.973389 
	C820.140564,897.855713 836.113342,897.801758 852.551331,898.093872 
	C853.014160,898.623413 853.011841,898.807007 853.001587,898.998413 
	C852.993774,899.006226 852.975647,899.024048 852.975647,899.024048 
	C836.569397,898.919678 820.163086,898.815369 803.498657,898.417480 
z"/>
<path fill="#292E6F" opacity="1.000000" stroke="none" 
	d="
M812.465637,914.882935 
	C812.211182,914.370544 812.426514,913.548767 812.627563,913.552185 
	C819.344543,913.667969 826.060242,913.862488 832.886475,914.425293 
	C826.307495,914.856140 819.618103,914.907227 812.465637,914.882935 
z"/>
<path fill="#39407B" opacity="1.000000" stroke="none" 
	d="
M673.344238,867.891602 
	C674.829895,861.240845 676.606445,854.407959 678.641724,847.295166 
	C679.835266,854.597656 677.708618,861.401184 673.344238,867.891602 
z"/>
<path fill="#39407B" opacity="1.000000" stroke="none" 
	d="
M678.842529,844.620972 
	C677.268799,840.827087 675.748962,836.629456 674.376953,832.041626 
	C675.981995,835.839966 677.439209,840.028625 678.842529,844.620972 
z"/>
<path fill="#292E6F" opacity="1.000000" stroke="none" 
	d="
M844.447998,914.884583 
	C846.723877,913.904175 849.444946,913.000305 852.571533,912.400635 
	C852.989319,913.421753 853.001526,914.138672 853.013794,914.855469 
	C850.306946,914.890686 847.600037,914.925903 844.447998,914.884583 
z"/>
<path fill="#1B2161" opacity="1.000000" stroke="none" 
	d="
M853.460327,914.782043 
	C853.001526,914.138672 852.989319,913.421753 852.962158,912.346436 
	C852.963806,907.973511 852.980347,903.959106 852.986328,899.484375 
	C852.975647,899.024048 852.993774,899.006226 853.292725,898.993652 
	C853.785767,898.977173 853.979980,898.973145 854.174133,898.969116 
	C854.085022,904.215576 853.995911,909.462097 853.460327,914.782043 
z"/>
<path fill="#39407B" opacity="1.000000" stroke="none" 
	d="
M671.969482,827.642944 
	C670.412964,826.500061 668.757507,825.042419 667.094360,823.230896 
	C668.681274,824.360718 670.275940,825.844421 671.969482,827.642944 
z"/>
<path fill="#292E6F" opacity="1.000000" stroke="none" 
	d="
M835.426025,914.880127 
	C836.602356,911.742249 838.682495,912.684021 840.908691,914.454773 
	C839.281128,914.853455 837.565247,914.904419 835.426025,914.880127 
z"/>
<path fill="#292E6F" opacity="1.000000" stroke="none" 
	d="
M799.396362,914.879089 
	C800.285156,914.588318 801.569702,914.372559 802.926453,914.482300 
	C801.929810,914.856567 800.860901,914.905334 799.396362,914.879089 
z"/>
<path fill="#39407B" opacity="1.000000" stroke="none" 
	d="
M674.383057,831.253784 
	C673.656982,830.594910 672.842285,829.632751 672.037659,828.300720 
	C672.796692,828.937378 673.545593,829.943909 674.383057,831.253784 
z"/>
<path fill="#39407B" opacity="1.000000" stroke="none" 
	d="
M665.169556,821.236328 
	C664.361023,821.089722 663.365540,820.707092 662.351135,819.954102 
	C663.215698,820.055969 664.099121,820.528137 665.169556,821.236328 
z"/>
<path fill="#39407B" opacity="1.000000" stroke="none" 
	d="
M665.369263,876.049805 
	C665.595093,875.485779 666.110413,874.853027 666.976196,874.288086 
	C666.770691,874.897583 666.214661,875.439331 665.369263,876.049805 
z"/>
<path fill="#39407B" opacity="1.000000" stroke="none" 
	d="
M671.586548,870.164978 
	C671.678345,869.578552 672.030640,868.852844 672.728943,868.086853 
	C672.665649,868.706299 672.256409,869.366028 671.586548,870.164978 
z"/>
<path fill="#39407B" opacity="1.000000" stroke="none" 
	d="
M621.994507,914.229919 
	C622.327881,913.984802 622.660095,913.950867 623.243042,913.911133 
	C623.181335,914.268921 622.869080,914.632568 622.269165,914.929810 
	C621.981445,914.863403 621.993469,914.441101 621.994507,914.229919 
z"/>
<path fill="#39407B" opacity="1.000000" stroke="none" 
	d="
M666.994873,822.650146 
	C666.551758,822.672424 665.985474,822.437195 665.414429,821.871704 
	C665.897034,821.825134 666.384338,822.108826 666.994873,822.650146 
z"/>
<path fill="#39407B" opacity="1.000000" stroke="none" 
	d="
M662.179565,819.402283 
	C661.987732,819.546814 661.647827,819.474670 661.168152,819.167664 
	C661.362793,819.017090 661.697144,819.101318 662.179565,819.402283 
z"/>
<path fill="#292E6F" opacity="1.000000" stroke="none" 
	d="
M854.175415,898.635376 
	C853.979980,898.973145 853.785767,898.977173 853.300537,898.985840 
	C853.011841,898.807007 853.014160,898.623413 853.016663,898.164368 
	C853.403442,898.026489 853.790100,898.164124 854.175415,898.635376 
z"/>
<path fill="#39407B" opacity="1.000000" stroke="none" 
	d="
M667.552368,874.270752 
	C667.476990,874.026306 667.640198,873.705444 668.095703,873.402466 
	C668.189026,873.678345 667.989990,873.936340 667.552368,874.270752 
z"/>
<path fill="#39407B" opacity="1.000000" stroke="none" 
	d="
M668.655945,873.298340 
	C668.559021,873.058472 668.683777,872.725464 669.102539,872.405457 
	C669.329834,872.750732 669.156860,873.013062 668.655945,873.298340 
z"/>
<path fill="#39407B" opacity="1.000000" stroke="none" 
	d="
M669.655518,872.296631 
	C669.557861,872.057495 669.682068,871.724426 670.100159,871.401428 
	C670.328735,871.744995 670.156494,872.008728 669.655518,872.296631 
z"/>
<path fill="#39407B" opacity="1.000000" stroke="none" 
	d="
M670.651672,871.262329 
	C670.537964,871.036438 670.648621,870.696594 671.046570,870.313965 
	C671.181274,870.563477 671.028687,870.855896 670.651672,871.262329 
z"/>
<path fill="#2A2A7A" opacity="1.000000" stroke="none" 
	d="
M439.268005,371.635101 
	C432.404449,348.961578 426.060150,326.535370 418.772064,304.420197 
	C415.280762,293.826080 418.663147,285.885986 426.793365,280.537170 
	C437.573700,273.444763 448.860077,266.525909 460.855988,261.976959 
	C522.390137,238.642715 583.324097,240.170731 642.873169,269.118347 
	C650.544556,272.847534 657.552979,278.252045 664.188965,283.707062 
	C670.139343,288.598419 671.765015,295.093811 669.225281,303.034851 
	C661.674194,326.644836 654.718750,350.444916 647.465393,374.150818 
	C645.225220,381.472412 643.872070,382.200684 636.669373,380.028870 
	C599.758850,368.899170 561.986511,365.030823 523.618896,367.240723 
	C499.811157,368.612030 476.374268,372.695892 453.432495,379.380493 
	C442.781647,382.483917 442.720490,382.417572 439.268005,371.635101 
z"/>
<path fill="#2B297A" opacity="1.000000" stroke="none" 
	d="
M437.970581,642.997681 
	C440.660370,631.245789 443.272583,619.905945 445.922638,608.574951 
	C447.440582,602.084595 448.938385,601.117432 455.345581,602.650024 
	C491.516266,611.301880 528.168579,614.846985 565.313049,612.849182 
	C587.797668,611.639832 609.917480,607.884338 631.803833,602.676392 
	C638.891479,600.989868 640.154785,601.772827 641.804993,608.930420 
	C645.279541,623.999939 648.726685,639.075806 652.181763,654.149780 
	C653.829346,661.337952 652.858337,663.695129 646.253723,666.950073 
	C631.007812,674.463806 614.607361,678.198669 597.972168,680.722656 
	C552.895386,687.562012 508.071228,686.413086 463.771301,675.022522 
	C456.080536,673.044983 448.630432,669.984497 441.256744,666.966003 
	C435.101410,664.446228 433.904510,661.594116 435.247131,655.084290 
	C436.052856,651.177185 437.016327,647.302673 437.970581,642.997681 
z"/>
<path fill="#FC5A8F" opacity="1.000000" stroke="none" 
	d="
M701.808228,359.264862 
	C705.126953,360.719147 708.651306,361.986908 711.281433,364.280182 
	C717.531189,369.729553 723.254578,375.656708 724.729919,384.463593 
	C725.945190,391.718475 722.020020,395.515289 715.082031,393.110901 
	C709.964966,391.337555 704.948303,389.225525 700.017273,386.978455 
	C695.210693,384.788086 692.040100,386.410553 692.034485,391.634949 
	C691.992126,430.906952 691.921753,470.179352 692.064331,509.450928 
	C692.125793,526.385559 692.626038,543.319458 693.011963,560.251709 
	C693.276428,571.859192 693.687622,583.463440 694.034912,595.501831 
	C693.515625,598.996460 692.818054,602.042969 692.548889,605.126831 
	C692.416077,606.648438 693.449524,608.280518 693.282837,609.788269 
	C693.054993,611.848267 692.626160,614.151917 691.469849,615.769409 
	C690.286560,617.424561 688.120972,618.377441 685.474060,620.299561 
	C677.930481,617.839844 675.290405,627.256836 669.131165,629.788330 
	C666.950073,628.447083 664.899719,627.186340 662.827087,625.911804 
	C659.843628,629.416931 657.180298,632.545959 653.374573,637.017029 
	C652.310974,633.853699 651.495239,631.585754 650.795715,629.282532 
	C650.428711,628.074097 650.691101,626.362000 649.937866,625.636658 
	C646.361938,622.192627 648.778320,620.454651 651.671326,618.936157 
	C653.251831,618.106567 655.539551,618.174805 656.671875,617.018799 
	C661.447937,612.142761 664.819092,613.984375 668.916199,618.228210 
	C674.157043,623.656799 676.303406,622.758118 678.085205,615.239075 
	C678.539429,613.322266 678.893555,611.343811 678.968079,609.381226 
	C679.367371,598.860840 679.901306,588.336975 679.923523,577.813416 
	C679.942749,568.684692 679.072937,559.554321 679.087158,550.425476 
	C679.103149,540.209412 679.748901,529.995850 679.972534,519.777954 
	C680.118164,513.122864 680.076904,506.460876 679.979187,499.804047 
	C679.865356,492.044556 675.982422,488.050507 668.445496,488.190125 
	C664.724976,488.259033 660.873596,488.468506 657.333923,489.489685 
	C651.371033,491.210022 646.403076,489.471222 642.255371,485.641083 
	C640.759644,484.259888 640.812256,481.202118 639.761902,477.519775 
	C642.754700,478.816589 644.676270,479.649200 647.201782,480.237457 
	C648.870850,480.012604 649.935913,480.032166 651.095581,480.439880 
	C655.562073,482.290649 659.928101,483.655457 664.461304,480.048523 
	C667.364746,480.024689 669.838989,480.257446 672.235657,479.927246 
	C673.884338,479.700073 675.425476,478.692078 677.007202,478.023315 
	C676.999695,478.013519 677.026245,478.010895 677.289429,477.889343 
	C678.033020,477.178955 678.513428,476.590149 679.343994,475.942078 
	C679.457275,473.585419 679.220520,471.287964 678.982361,468.575470 
	C678.981567,466.776855 678.982178,465.393280 679.275574,463.730438 
	C679.372986,460.297363 679.177734,457.143585 678.981384,453.540558 
	C678.994751,450.395020 679.009277,447.698730 679.384644,444.994843 
	C680.333618,444.752991 681.454956,444.428711 681.432739,444.297546 
	C680.681641,439.849426 679.821899,435.419678 678.977356,430.571716 
	C678.990234,428.771118 679.003662,427.386078 679.388245,425.922485 
	C682.521118,420.346375 682.329834,417.802368 679.010803,415.530518 
	C679.000916,408.708160 678.999268,402.354095 679.379883,395.993835 
	C681.151001,394.935120 682.539673,393.882599 683.928406,392.830048 
	C682.284790,391.553345 680.641174,390.276672 678.992554,388.666687 
	C678.990906,387.888947 678.994202,387.444489 679.331665,386.950348 
	C679.446289,385.933228 679.226807,384.965851 679.000427,383.582092 
	C678.997314,381.777832 679.001099,380.389923 679.359009,378.961243 
	C683.220703,375.941498 681.596252,373.425995 678.992310,370.665588 
	C678.990540,369.888916 678.994080,369.445068 679.344421,368.940125 
	C681.677734,367.187622 681.764893,365.837006 678.988159,364.571716 
	C678.673523,359.097229 678.365784,354.049988 678.058105,349.002777 
	C682.726868,347.870911 684.227844,351.535797 685.546326,354.525665 
	C689.545654,363.594330 693.947693,365.100067 701.808228,359.264862 
z"/>
<path fill="#312977" opacity="1.000000" stroke="none" 
	d="
M438.632233,422.433533 
	C439.387939,439.845428 439.994904,456.812927 440.830292,473.769196 
	C441.027985,477.782135 439.630371,478.997589 435.707367,478.843506 
	C428.720490,478.569061 421.712708,478.663910 414.718292,478.816681 
	C411.637665,478.883972 410.227631,478.115326 410.234314,474.657867 
	C410.324066,428.196899 410.294464,381.735687 410.294464,333.999969 
	C417.494568,341.457947 434.191681,395.000488 438.632233,422.433533 
z"/>
<path fill="#302876" opacity="1.000000" stroke="none" 
	d="
M647.933350,540.036377 
	C647.918091,524.281311 647.918091,508.987244 647.918091,493.234009 
	C656.932129,493.234009 666.624573,493.234009 676.737366,493.234009 
	C676.811096,494.884857 676.960510,496.500793 676.943970,498.115021 
	C676.560669,535.592468 676.206299,573.070374 675.656250,610.545410 
	C675.619446,613.052856 674.075684,615.538208 673.232849,618.033813 
	C671.457703,616.260864 669.028381,614.800354 668.009338,612.666321 
	C658.564392,592.886230 651.640442,572.299744 649.048584,550.415894 
	C648.657410,547.112671 648.314087,543.803711 647.933350,540.036377 
z"/>
<path fill="#302877" opacity="1.000000" stroke="none" 
	d="
M410.727600,497.109070 
	C411.578735,495.343994 412.397095,492.985504 413.287018,492.958160 
	C422.235809,492.683350 431.196289,492.790985 440.712067,492.790985 
	C440.712067,500.263428 440.818695,507.212433 440.692474,514.157166 
	C440.283264,536.670593 439.106842,559.143860 431.947845,580.714294 
	C428.236053,591.898071 423.583221,602.779663 419.050446,613.670776 
	C418.294403,615.487305 415.975250,616.653320 414.378418,618.119995 
	C413.594147,616.087158 412.153137,614.063965 412.122894,612.019958 
	C411.557861,573.880737 411.160522,535.738892 410.727600,497.109070 
z"/>
<path fill="#FEF6FB" opacity="1.000000" stroke="none" 
	d="
M671.679626,179.474823 
	C673.185608,185.628815 674.803711,191.386993 675.785706,197.251663 
	C676.633545,202.315247 674.975830,203.480194 670.238464,201.426056 
	C657.848816,196.053848 646.797974,188.971268 639.617676,176.996780 
	C635.608093,170.310150 631.237061,163.836258 627.366455,157.073288 
	C626.439697,155.453934 626.858887,153.064270 626.659119,151.028870 
	C628.535156,151.043152 630.675049,150.467697 632.243652,151.169296 
	C641.140259,155.148453 650.100769,159.066437 658.638794,163.737823 
	C664.717773,167.063858 668.962219,172.537491 671.679626,179.474823 
z"/>
<path fill="#B72E4B" opacity="1.000000" stroke="none" 
	d="
M473.901947,773.618652 
	C456.829102,772.686340 440.656403,768.219971 425.892426,759.393066 
	C414.309875,752.468201 408.554138,741.136475 403.993286,728.677368 
	C412.766602,725.404358 418.885681,728.702209 423.855743,736.079163 
	C431.345703,747.196350 443.120544,752.236572 455.289062,755.702637 
	C464.956146,758.456116 470.682556,764.233459 473.901947,773.618652 
z"/>
<path fill="#B62D4B" opacity="1.000000" stroke="none" 
	d="
M683.701050,728.125488 
	C680.001770,739.512695 674.903503,750.369324 664.914429,757.210754 
	C657.797546,762.085083 649.579956,765.790283 641.351562,768.483093 
	C632.807434,771.279236 623.659058,772.228943 614.351318,773.970581 
	C615.938171,765.873901 620.415344,759.925293 628.486694,757.059814 
	C633.172241,755.396301 637.857178,753.729736 642.521790,752.008606 
	C651.661316,748.636353 658.938721,742.917542 664.749573,735.059326 
	C666.737061,732.371643 669.803528,730.481934 673.051819,728.059082 
	C675.151062,727.597229 676.575562,727.303955 678.000000,727.010620 
	C679.786438,727.317383 681.572815,727.624207 683.701050,728.125488 
z"/>
<path fill="#D5649F" opacity="1.000000" stroke="none" 
	d="
M646.829712,478.020081 
	C646.223145,476.842865 645.083923,475.662903 645.089905,474.488770 
	C645.181519,456.426300 645.718140,438.454651 647.480225,420.383118 
	C649.592346,398.720856 657.536499,378.996246 663.438232,358.571411 
	C665.633423,350.974304 669.098633,343.738800 672.110413,336.389893 
	C672.483154,335.480377 673.633179,334.889465 674.746338,334.516449 
	C673.981140,337.862488 672.892700,340.842987 671.821045,343.852783 
	C671.837830,343.882050 671.900696,343.906738 671.612061,344.117157 
	C670.166870,347.866089 669.010254,351.404602 667.895264,354.969238 
	C667.936890,354.995331 667.903687,354.902832 667.645325,355.119080 
	C667.208252,356.208069 667.029602,357.080811 666.897583,357.969299 
	C666.944275,357.985046 666.894592,357.900024 666.633911,358.111572 
	C666.145081,359.188873 665.916870,360.054626 665.482910,361.209991 
	C661.808228,372.229736 658.339294,382.959869 654.632324,393.998352 
	C654.179382,395.829071 653.964539,397.351349 653.754883,398.896606 
	C653.760193,398.919586 653.797729,398.891052 653.517517,399.138611 
	C652.754028,402.228302 652.270691,405.070465 651.817810,407.955750 
	C651.848206,407.998901 651.846863,407.893372 651.570435,408.171143 
	C650.763245,412.670776 650.232422,416.892639 649.639099,421.178894 
	C649.576538,421.243225 649.604431,421.420563 649.418701,421.802094 
	C648.795166,426.651031 648.117432,431.110260 647.964233,435.587402 
	C647.480408,449.728027 647.192993,463.875366 646.829712,478.020081 
z"/>
<path fill="#D5649F" opacity="1.000000" stroke="none" 
	d="
M678.997559,369.001251 
	C678.994080,369.445068 678.990540,369.888916 678.985229,371.109985 
	C678.990662,374.258789 678.997742,376.630402 679.004883,379.001984 
	C679.001099,380.389923 678.997314,381.777832 678.991943,383.957275 
	C678.992798,385.499176 678.995178,386.249634 678.997559,387.000061 
	C678.994202,387.444489 678.990906,387.888947 678.987427,389.104156 
	C678.990662,391.916626 678.994141,393.958313 678.997559,396.000000 
	C678.999268,402.354095 679.000916,408.708160 679.000610,415.984680 
	C679.004761,419.938385 679.010925,422.969696 679.017090,426.001007 
	C679.003662,427.386078 678.990234,428.771118 678.695557,430.861908 
	C678.617432,436.045898 678.820618,440.524170 679.023804,445.002441 
	C679.009277,447.698730 678.994751,450.395020 678.700073,453.827332 
	C678.607483,457.712158 678.795166,460.860931 678.982788,464.009735 
	C678.982178,465.393280 678.981567,466.776855 678.717896,468.813232 
	C678.634521,471.644470 678.814209,473.822906 678.993896,476.001312 
	C678.513428,476.590149 678.033020,477.178955 677.258057,477.420654 
	C676.863831,453.070343 676.764099,429.067169 676.732178,404.613220 
	C676.727722,401.450653 676.655396,398.738922 676.681702,395.574127 
	C676.478333,374.792755 676.176331,354.464386 675.874390,334.136047 
	C676.827332,337.201294 677.995728,340.222198 678.639526,343.351044 
	C678.947144,344.846283 678.259216,346.546387 678.040161,348.578247 
	C678.365784,354.049988 678.673523,359.097229 678.983276,364.971924 
	C678.989441,366.866699 678.993530,367.933990 678.997559,369.001251 
z"/>
<path fill="#5B1557" opacity="1.000000" stroke="none" 
	d="
M676.664368,405.063995 
	C676.764099,429.067169 676.863831,453.070343 676.994873,477.542206 
	C677.026245,478.010895 676.999695,478.013519 676.542480,478.103455 
	C666.447571,478.356171 656.809875,478.518951 647.172119,478.681732 
	C647.172119,478.681732 647.059937,478.320587 646.944824,478.170349 
	C647.192993,463.875366 647.480408,449.728027 647.964233,435.587402 
	C648.117432,431.110260 648.795166,426.651031 649.546509,422.304077 
	C649.888000,424.918274 650.031433,427.416931 649.924683,429.904877 
	C649.321045,443.972260 648.703857,458.039398 647.982849,472.101074 
	C647.794189,475.781219 649.247681,477.185638 652.924072,477.061707 
	C658.574890,476.871216 664.255188,476.740204 669.889038,477.106384 
	C674.809082,477.426178 676.133972,475.514984 676.082275,470.789642 
	C675.862183,450.658386 675.962219,430.523407 676.003784,410.389893 
	C676.007446,408.614166 676.434143,406.839264 676.664368,405.063995 
z"/>
<path fill="#DB6D95" opacity="1.000000" stroke="none" 
	d="
M424.917206,165.925522 
	C427.204987,163.661026 429.115906,160.638779 431.852875,159.277435 
	C439.373901,155.536545 447.195679,152.379028 454.995148,149.230148 
	C457.999420,148.017227 461.928650,147.521683 463.108215,151.176254 
	C463.790283,153.289505 461.652924,156.312775 460.345642,158.926575 
	C459.906769,158.926682 459.712402,158.763870 459.797333,158.418289 
	C460.200256,155.792160 460.518219,153.511612 460.836182,151.231049 
	C458.493927,151.381287 455.827820,150.855545 453.864136,151.796158 
	C444.225037,156.413391 434.772675,161.420456 425.171051,166.197800 
	C425.087769,166.105789 424.917206,165.925522 424.917206,165.925522 
z"/>
<path fill="#5B1557" opacity="1.000000" stroke="none" 
	d="
M675.695862,334.116028 
	C676.176331,354.464386 676.478333,374.792755 676.332642,395.429138 
	C675.597229,394.002319 675.069336,392.268768 675.059631,390.532349 
	C674.981628,376.580750 674.991089,362.628601 675.000916,348.676636 
	C675.002563,346.314301 675.361267,343.803040 671.804260,343.823486 
	C672.892700,340.842987 673.981140,337.862488 675.117554,334.525421 
	C675.165588,334.168854 675.517395,334.095978 675.695862,334.116028 
z"/>
<path fill="#DB6D95" opacity="1.000000" stroke="none" 
	d="
M420.069885,201.073898 
	C417.594177,201.945358 414.883484,203.822937 412.728882,203.319656 
	C411.386810,203.006180 409.820801,198.895203 410.205109,196.833267 
	C411.386688,190.493759 413.459137,184.320267 415.612793,178.053497 
	C416.040222,178.024750 416.191376,178.149536 416.142120,178.529449 
	C414.714996,185.036896 413.031158,191.116333 412.058044,197.307510 
	C411.307465,202.082626 412.639862,202.853897 417.412781,201.430710 
	C418.205505,201.194336 419.003296,200.975067 419.865997,200.829865 
	C419.933228,200.911804 420.069885,201.073898 420.069885,201.073898 
z"/>
<path fill="#D5649F" opacity="1.000000" stroke="none" 
	d="
M647.117920,479.005463 
	C656.809875,478.518951 666.447571,478.356171 676.549988,478.113220 
	C675.425476,478.692078 673.884338,479.700073 672.235657,479.927246 
	C669.838989,480.257446 667.364746,480.024689 663.998779,480.027405 
	C659.049683,480.032471 655.025330,480.042114 651.000977,480.051727 
	C649.935913,480.032166 648.870850,480.012604 647.406555,479.988159 
	C647.026123,479.765228 647.044922,479.547211 647.117920,479.005463 
z"/>
<path fill="#DB6D95" opacity="1.000000" stroke="none" 
	d="
M460.003296,159.008850 
	C459.285583,165.726913 455.303802,170.505997 450.360046,174.958832 
	C449.930359,174.944626 449.749329,174.788651 449.849335,174.460358 
	C453.203705,169.009338 456.458069,163.886612 459.712402,158.763885 
	C459.712402,158.763870 459.906769,158.926682 460.003296,159.008850 
z"/>
<path fill="#DB6D95" opacity="1.000000" stroke="none" 
	d="
M447.108246,179.110168 
	C447.329346,183.096497 444.849823,185.240402 441.317200,186.931915 
	C440.882935,186.901672 440.701050,186.737717 440.818909,186.424667 
	C442.902618,183.694809 444.868469,181.278000 446.903564,178.922577 
	C446.972839,178.983978 447.108246,179.110168 447.108246,179.110168 
z"/>
<path fill="#DB6D95" opacity="1.000000" stroke="none" 
	d="
M429.111572,196.121017 
	C426.342926,197.755371 423.574310,199.389725 420.437775,201.048981 
	C420.069885,201.073898 419.933228,200.911804 420.079529,200.569046 
	C423.106812,198.760757 425.987823,197.295227 428.928955,195.903015 
	C428.989075,195.976318 429.111572,196.121017 429.111572,196.121017 
z"/>
<path fill="#F85A8C" opacity="1.000000" stroke="none" 
	d="
M677.939209,726.661255 
	C676.575562,727.303955 675.151062,727.597229 673.362000,727.899292 
	C673.818542,724.911621 675.263123,723.821716 677.939209,726.661255 
z"/>
<path fill="#DB6D95" opacity="1.000000" stroke="none" 
	d="
M434.105286,193.113907 
	C432.683899,194.094406 431.262543,195.074890 429.476379,196.088196 
	C429.111572,196.121017 428.989075,195.976318 429.139709,195.655457 
	C430.804749,194.489334 432.319122,193.644058 433.901123,192.877838 
	C433.968750,192.956909 434.105286,193.113907 434.105286,193.113907 
z"/>
<path fill="#DB6D95" opacity="1.000000" stroke="none" 
	d="
M450.020386,175.023163 
	C449.335968,176.387909 448.561554,177.674103 447.447693,179.035248 
	C447.108246,179.110168 446.972839,178.983978 446.985840,178.615265 
	C447.915649,177.093903 448.832489,175.941269 449.749329,174.788635 
	C449.749329,174.788651 449.930359,174.944626 450.020386,175.023163 
z"/>
<path fill="#DB6D95" opacity="1.000000" stroke="none" 
	d="
M438.068756,190.059189 
	C436.980621,191.053650 435.892517,192.048096 434.454834,193.078232 
	C434.105286,193.113907 433.968750,192.956909 434.075714,192.614471 
	C435.374634,191.424118 436.566620,190.576187 437.835205,189.811859 
	C437.911835,189.895462 438.068756,190.059189 438.068756,190.059189 
z"/>
<path fill="#DB6D95" opacity="1.000000" stroke="none" 
	d="
M417.930969,173.948792 
	C418.378784,172.991409 418.826599,172.034042 419.698242,171.089813 
	C420.122040,171.102966 420.299835,171.262207 420.200073,171.548203 
	C419.493439,172.632996 418.886597,173.431793 418.192902,174.159698 
	C418.106079,174.088776 417.930969,173.948792 417.930969,173.948792 
z"/>
<path fill="#DB6D95" opacity="1.000000" stroke="none" 
	d="
M415.965942,177.960815 
	C416.077759,177.355865 416.263855,176.814850 416.746094,176.150772 
	C417.042206,176.027710 417.188782,176.149948 417.143433,176.435425 
	C416.795837,177.197128 416.493591,177.673325 416.191345,178.149536 
	C416.191376,178.149536 416.040222,178.024750 415.965942,177.960815 
z"/>
<path fill="#DB6D95" opacity="1.000000" stroke="none" 
	d="
M416.970093,175.965225 
	C417.089050,175.367996 417.280121,174.833267 417.701111,174.123657 
	C417.930969,173.948792 418.106079,174.088776 418.125031,174.435394 
	C417.825592,175.237976 417.507172,175.693954 417.188782,176.149933 
	C417.188782,176.149948 417.042206,176.027710 416.970093,175.965225 
z"/>
<path fill="#DB6D95" opacity="1.000000" stroke="none" 
	d="
M420.034607,171.021729 
	C420.067780,170.632111 420.255432,170.372192 420.786407,170.108948 
	C421.062622,170.057190 421.198853,170.194992 421.105377,170.415955 
	C420.841583,170.921692 420.604218,171.130112 420.299835,171.262207 
	C420.299835,171.262207 420.122040,171.102966 420.034607,171.021729 
z"/>
<path fill="#DB6D95" opacity="1.000000" stroke="none" 
	d="
M439.071777,189.060532 
	C438.952667,189.371536 438.758636,189.625229 438.279236,189.940399 
	C438.068756,190.059189 437.911835,189.895462 437.948792,189.601746 
	C438.184265,189.046097 438.437714,188.858215 438.826843,188.824097 
	C438.907623,188.903793 439.071777,189.060532 439.071777,189.060532 
z"/>
<path fill="#DB6D95" opacity="1.000000" stroke="none" 
	d="
M440.071350,188.060196 
	C439.953125,188.371201 439.759857,188.625137 439.281677,188.941254 
	C439.071777,189.060532 438.907623,188.903793 438.940674,188.610687 
	C439.169891,188.048798 439.422852,187.853668 439.816711,187.814880 
	C439.900726,187.897522 440.071350,188.060196 440.071350,188.060196 
z"/>
<path fill="#DB6D95" opacity="1.000000" stroke="none" 
	d="
M440.972290,186.985397 
	C440.935059,187.370255 440.742615,187.620773 440.277832,187.940430 
	C440.071350,188.060196 439.900726,187.897522 439.929382,187.606110 
	C440.151611,187.052704 440.399292,186.860382 440.701050,186.737717 
	C440.701050,186.737717 440.882935,186.901672 440.972290,186.985397 
z"/>
<path fill="#DB6D95" opacity="1.000000" stroke="none" 
	d="
M421.905396,168.921585 
	C422.028198,168.607986 422.223358,168.348892 422.773499,168.098999 
	C423.056122,168.053711 423.194611,168.198792 423.079193,168.412689 
	C422.761353,168.894897 422.500000,169.079956 422.111938,169.115845 
	C422.044220,169.049896 421.905396,168.921585 421.905396,168.921585 
z"/>
<path fill="#DB6D95" opacity="1.000000" stroke="none" 
	d="
M423.910126,166.923340 
	C424.033478,166.614517 424.229706,166.362411 424.708008,166.046265 
	C424.917206,165.925522 425.087769,166.105789 425.046631,166.401627 
	C424.790314,166.944550 424.526672,167.118073 424.139252,167.143616 
	C424.063873,167.069168 423.910126,166.923340 423.910126,166.923340 
z"/>
<path fill="#DB6D95" opacity="1.000000" stroke="none" 
	d="
M422.988342,167.979828 
	C423.051636,167.609634 423.245270,167.362305 423.705811,167.043655 
	C423.910126,166.923340 424.063873,167.069168 424.024384,167.358582 
	C423.780518,167.916321 423.517090,168.099915 423.194611,168.198792 
	C423.194611,168.198792 423.056122,168.053711 422.988342,167.979828 
z"/>
<path fill="#DB6D95" opacity="1.000000" stroke="none" 
	d="
M420.996094,169.986755 
	C421.053864,169.616501 421.243530,169.366211 421.701965,169.043518 
	C421.905396,168.921585 422.044220,169.049896 422.003906,169.332733 
	C421.766510,169.885056 421.511627,170.078186 421.198853,170.194992 
	C421.198853,170.194992 421.062622,170.057190 420.996094,169.986755 
z"/>
<path fill="#D7D6F9" opacity="1.000000" stroke="none" 
	d="
M469.890442,851.443298 
	C466.761871,861.998596 464.087708,863.976685 453.390839,863.997742 
	C447.243103,864.009827 441.095337,863.999939 433.994629,863.999939 
	C433.994629,860.983032 434.000092,858.249756 433.993530,855.516479 
	C433.979187,849.525269 434.174561,843.522888 433.865082,837.546753 
	C433.658112,833.550293 434.677277,831.757019 439.040741,832.110840 
	C445.326416,832.620544 451.659241,832.521545 457.956268,832.926453 
	C464.380035,833.339355 469.335052,838.659546 469.926758,845.533386 
	C470.083069,847.349548 469.942474,849.191223 469.890442,851.443298 
z"/>
<path fill="#D6D6FA" opacity="1.000000" stroke="none" 
	d="
M289.657715,852.301758 
	C286.708130,861.843567 283.684174,864.101135 274.085052,864.150879 
	C267.968048,864.182617 261.850769,864.156860 255.107986,864.156860 
	C255.107986,853.962524 255.045761,844.225464 255.226898,834.492920 
	C255.241287,833.719788 256.930023,832.341064 257.859924,832.324463 
	C264.163727,832.212036 270.535492,831.859741 276.765594,832.596680 
	C286.587402,833.758545 290.382080,839.830627 289.657715,852.301758 
z"/>
<path fill="#DBD2F8" opacity="1.000000" stroke="none" 
	d="
M348.058472,855.089111 
	C350.163177,849.322571 352.157837,843.934204 354.694092,837.082825 
	C359.593231,850.792603 363.975342,863.055420 368.513794,875.755859 
	C359.308594,875.755859 350.594940,875.755859 340.985901,875.755859 
	C343.386414,868.760864 345.667389,862.114075 348.058472,855.089111 
z"/>
<path fill="#CDD9FB" opacity="1.000000" stroke="none" 
	d="
M719.676758,848.629333 
	C721.032410,844.855713 722.230347,841.443542 723.841858,836.853394 
	C728.701599,850.442444 733.190918,862.995605 737.800964,875.886353 
	C728.405945,875.886353 719.465332,875.886353 709.986816,875.886353 
	C713.219971,866.763977 716.369507,857.877380 719.676758,848.629333 
z"/>
<path fill="#CCD9FB" opacity="1.000000" stroke="none" 
	d="
M658.850952,847.235535 
	C658.660461,859.537598 653.954773,864.249756 642.264099,864.269958 
	C636.312683,864.280212 630.361267,864.271729 624.088623,864.271729 
	C624.088623,853.602173 624.088623,843.251282 624.088623,832.824341 
	C632.016174,832.824341 639.812744,832.395569 647.537109,832.958557 
	C653.834351,833.417664 657.324097,838.315613 658.850952,847.235535 
z"/>
<path fill="#FB5B91" opacity="1.000000" stroke="none" 
	d="
M679.384644,444.994843 
	C678.820618,440.524170 678.617432,436.045898 678.696106,431.277435 
	C679.821899,435.419678 680.681641,439.849426 681.432739,444.297546 
	C681.454956,444.428711 680.333618,444.752991 679.384644,444.994843 
z"/>
<path fill="#FB5B91" opacity="1.000000" stroke="none" 
	d="
M679.379883,395.993835 
	C678.994141,393.958313 678.990662,391.916626 678.992432,389.437469 
	C680.641174,390.276672 682.284790,391.553345 683.928406,392.830048 
	C682.539673,393.882599 681.151001,394.935120 679.379883,395.993835 
z"/>
<path fill="#FB5B91" opacity="1.000000" stroke="none" 
	d="
M651.095581,480.439880 
	C655.025330,480.042114 659.049683,480.032471 663.536499,480.043945 
	C659.928101,483.655457 655.562073,482.290649 651.095581,480.439880 
z"/>
<path fill="#FB5B91" opacity="1.000000" stroke="none" 
	d="
M679.388245,425.922485 
	C679.010925,422.969696 679.004761,419.938385 679.008789,416.452942 
	C682.329834,417.802368 682.521118,420.346375 679.388245,425.922485 
z"/>
<path fill="#FB5B91" opacity="1.000000" stroke="none" 
	d="
M679.275513,463.730438 
	C678.795166,460.860931 678.607483,457.712158 678.701172,454.276581 
	C679.177734,457.143585 679.372986,460.297363 679.275513,463.730438 
z"/>
<path fill="#FB5B91" opacity="1.000000" stroke="none" 
	d="
M679.359009,378.961243 
	C678.997742,376.630402 678.990662,374.258789 678.990601,371.442810 
	C681.596252,373.425995 683.220703,375.941498 679.359009,378.961243 
z"/>
<path fill="#FB5B91" opacity="1.000000" stroke="none" 
	d="
M679.343994,475.942078 
	C678.814209,473.822906 678.634521,471.644470 678.719299,469.228302 
	C679.220520,471.287964 679.457275,473.585419 679.343994,475.942078 
z"/>
<path fill="#FB5B91" opacity="1.000000" stroke="none" 
	d="
M679.344421,368.940125 
	C678.993530,367.933990 678.989441,366.866699 678.990234,365.399231 
	C681.764893,365.837006 681.677734,367.187622 679.344421,368.940125 
z"/>
<path fill="#FB5B91" opacity="1.000000" stroke="none" 
	d="
M679.331665,386.950348 
	C678.995178,386.249634 678.992798,385.499176 678.998840,384.373596 
	C679.226807,384.965851 679.446289,385.933228 679.331665,386.950348 
z"/>
<path fill="#2F2875" opacity="1.000000" stroke="none" 
	d="
M671.821045,343.852783 
	C675.361267,343.803040 675.002563,346.314301 675.000916,348.676636 
	C674.991089,362.628601 674.981628,376.580750 675.059631,390.532349 
	C675.069336,392.268768 675.597229,394.002319 676.234009,395.882172 
	C676.655396,398.738922 676.727722,401.450653 676.732178,404.613220 
	C676.434143,406.839264 676.007446,408.614166 676.003784,410.389893 
	C675.962219,430.523407 675.862183,450.658386 676.082275,470.789642 
	C676.133972,475.514984 674.809082,477.426178 669.889038,477.106384 
	C664.255188,476.740204 658.574890,476.871216 652.924072,477.061707 
	C649.247681,477.185638 647.794189,475.781219 647.982849,472.101074 
	C648.703857,458.039398 649.321045,443.972260 649.924683,429.904877 
	C650.031433,427.416931 649.888000,424.918274 649.732300,421.922546 
	C649.604431,421.420563 649.576538,421.243225 649.977905,420.928345 
	C650.868469,416.373413 651.357666,412.133392 651.846802,407.893372 
	C651.846863,407.893372 651.848206,407.998901 652.148071,407.758698 
	C652.897827,404.642670 653.347778,401.766876 653.797729,398.891052 
	C653.797729,398.891052 653.760193,398.919586 654.101501,398.700012 
	C654.585327,396.883636 654.727783,395.286804 654.870239,393.689972 
	C658.339294,382.959869 661.808228,372.229736 665.814941,361.065094 
	C666.533325,359.720367 666.713989,358.810211 666.894592,357.900024 
	C666.894592,357.900024 666.944275,357.985046 667.201904,357.792480 
	C667.607544,356.700897 667.755615,355.801880 667.903687,354.902832 
	C667.903687,354.902832 667.936890,354.995331 668.239136,354.840118 
	C669.661133,351.092194 670.780945,347.499451 671.900696,343.906738 
	C671.900696,343.906738 671.837830,343.882050 671.821045,343.852783 
z"/>
<path fill="#5B1557" opacity="1.000000" stroke="none" 
	d="
M671.612061,344.117157 
	C670.780945,347.499451 669.661133,351.092194 668.197510,354.814026 
	C669.010254,351.404602 670.166870,347.866089 671.612061,344.117157 
z"/>
<path fill="#5B1557" opacity="1.000000" stroke="none" 
	d="
M651.570435,408.171143 
	C651.357666,412.133392 650.868469,416.373413 650.040527,420.864014 
	C650.232422,416.892639 650.763245,412.670776 651.570435,408.171143 
z"/>
<path fill="#5B1557" opacity="1.000000" stroke="none" 
	d="
M653.517517,399.138611 
	C653.347778,401.766876 652.897827,404.642670 652.117676,407.715546 
	C652.270691,405.070465 652.754028,402.228302 653.517517,399.138611 
z"/>
<path fill="#5B1557" opacity="1.000000" stroke="none" 
	d="
M654.632263,393.998352 
	C654.727783,395.286804 654.585327,396.883636 654.096191,398.677063 
	C653.964539,397.351349 654.179382,395.829071 654.632263,393.998352 
z"/>
<path fill="#5B1557" opacity="1.000000" stroke="none" 
	d="
M667.645325,355.119080 
	C667.755615,355.801880 667.607544,356.700897 667.155212,357.776733 
	C667.029602,357.080811 667.208252,356.208069 667.645325,355.119080 
z"/>
<path fill="#5B1557" opacity="1.000000" stroke="none" 
	d="
M666.633911,358.111572 
	C666.713989,358.810211 666.533325,359.720367 666.020691,360.775452 
	C665.916870,360.054626 666.145081,359.188873 666.633911,358.111572 
z"/>
<path fill="#FEF6FB" opacity="1.000000" stroke="none" 
	d="
M421.105377,170.415955 
	C421.511627,170.078186 421.766510,169.885056 422.071625,169.398682 
	C422.500000,169.079956 422.761353,168.894897 423.079193,168.412689 
	C423.517090,168.099915 423.780518,167.916321 424.099762,167.433014 
	C424.526672,167.118073 424.790314,166.944550 425.129944,166.493637 
	C434.772675,161.420456 444.225037,156.413391 453.864136,151.796158 
	C455.827820,150.855545 458.493927,151.381287 460.836182,151.231049 
	C460.518219,153.511612 460.200256,155.792160 459.797363,158.418304 
	C456.458069,163.886612 453.203705,169.009338 449.849304,174.460358 
	C448.832489,175.941269 447.915649,177.093903 446.916565,178.553864 
	C444.868469,181.278000 442.902618,183.694809 440.818909,186.424667 
	C440.399292,186.860382 440.151611,187.052704 439.845337,187.523453 
	C439.422852,187.853668 439.169891,188.048798 438.859863,188.530975 
	C438.437714,188.858215 438.184265,189.046097 437.872162,189.518158 
	C436.566620,190.576187 435.374634,191.424118 434.008118,192.535400 
	C432.319122,193.644058 430.804749,194.489334 429.079590,195.582153 
	C425.987823,197.295227 423.106812,198.760757 420.012268,200.487091 
	C419.003296,200.975067 418.205505,201.194336 417.412781,201.430710 
	C412.639862,202.853897 411.307465,202.082626 412.058044,197.307510 
	C413.031158,191.116333 414.714996,185.036896 416.142090,178.529434 
	C416.493591,177.673325 416.795837,177.197128 417.143433,176.435425 
	C417.507172,175.693954 417.825592,175.237976 418.211853,174.506302 
	C418.886597,173.431793 419.493439,172.632996 420.200073,171.548203 
	C420.604218,171.130112 420.841583,170.921692 421.105377,170.415955 
z"/>
</svg>